<svg width="451" height="275" viewBox="0 0 451 275" fill="none" xmlns="http://www.w3.org/2000/svg">
<path d="M137.217 170.949V138.33H59.7197C80.9549 125.414 95.6226 115.562 107.006 105.492C125.834 88.6351 135.028 72.8728 135.028 52.7322C135.028 22.5212 114.231 0.848145 71.1035 0.848145C23.5979 0.848145 1.26807 26.6807 1.26807 62.3647C1.26807 67.3998 1.70591 70.2458 3.01943 75.9377H37.1709C36.0763 70.4647 35.2007 67.8377 35.2007 63.0214C35.2007 39.597 51.1818 29.5267 70.0089 29.5267C88.3982 29.5267 100.658 38.7213 100.658 54.0457C100.658 66.3052 92.5577 77.908 75.0441 92.3567C60.3765 104.178 39.5791 117.751 7.83567 138.33V170.949H137.217ZM226.318 174.233C265.723 174.233 292.432 150.37 292.432 113.811C292.432 80.9729 270.321 58.4241 237.702 58.4241C216.904 58.4241 200.047 67.8377 191.947 82.2864C193.261 49.2295 206.834 27.7753 227.412 27.7753C238.14 27.7753 247.991 33.6861 250.837 45.2889H284.551C280.829 18.1428 260.031 1.06706 229.821 1.06706C186.474 1.06706 158.234 39.597 158.234 94.1081C158.234 143.803 181.877 174.233 226.318 174.233ZM225.88 145.992C207.272 145.992 195.012 133.951 195.012 115.562C195.012 97.1729 207.491 84.9134 225.88 84.9134C244.269 84.9134 256.529 97.1729 256.529 115.562C256.529 134.17 244.05 145.992 225.88 145.992ZM421.594 170.73V139.643H450.054V107.243H421.594V70.9025H389.413V107.243H350.664L407.803 4.35086H371.024L313.667 105.054V139.643H389.413V170.73H421.594Z" fill="black"/>
<path d="M137.217 170.949V138.33H59.7197C80.9549 125.414 95.6226 115.562 107.006 105.492C125.834 88.6351 135.028 72.8728 135.028 52.7322C135.028 22.5212 114.231 0.848145 71.1035 0.848145C23.5979 0.848145 1.26807 26.6807 1.26807 62.3647C1.26807 67.3998 1.70591 70.2458 3.01943 75.9377H37.1709C36.0763 70.4647 35.2007 67.8377 35.2007 63.0214C35.2007 39.597 51.1818 29.5267 70.0089 29.5267C88.3982 29.5267 100.658 38.7213 100.658 54.0457C100.658 66.3052 92.5577 77.908 75.0441 92.3567C60.3765 104.178 39.5791 117.751 7.83567 138.33V170.949H137.217ZM226.318 174.233C265.723 174.233 292.432 150.37 292.432 113.811C292.432 80.9729 270.321 58.4241 237.702 58.4241C216.904 58.4241 200.047 67.8377 191.947 82.2864C193.261 49.2295 206.834 27.7753 227.412 27.7753C238.14 27.7753 247.991 33.6861 250.837 45.2889H284.551C280.829 18.1428 260.031 1.06706 229.821 1.06706C186.474 1.06706 158.234 39.597 158.234 94.1081C158.234 143.803 181.877 174.233 226.318 174.233ZM225.88 145.992C207.272 145.992 195.012 133.951 195.012 115.562C195.012 97.1729 207.491 84.9134 225.88 84.9134C244.269 84.9134 256.529 97.1729 256.529 115.562C256.529 134.17 244.05 145.992 225.88 145.992ZM421.594 170.73V139.643H450.054V107.243H421.594V70.9025H389.413V107.243H350.664L407.803 4.35086H371.024L313.667 105.054V139.643H389.413V170.73H421.594Z" fill="#235DFF"/>
<path d="M402.76 273.27H410.18V247.37C410.18 237.73 418.41 232.16 427.87 232.16C436.97 232.16 441.57 237.46 441.57 245.69V273.27H449V243.83C449 233.31 441.31 225.44 429 225.44C423 225.44 414.76 227.44 410.16 233.84V226.84H402.74L402.76 273.27ZM369.25 268C356.87 268 350.6 260.66 350.6 250C350.6 239.34 356.87 232.14 369.25 232.14C381.63 232.14 387.91 239.48 387.91 250C387.91 260.52 381.54 268 369.25 268ZM369.43 274.72C384.99 274.72 395.51 263.84 395.51 250.05C395.51 235.73 384.99 225.47 369.43 225.47C353.87 225.47 343 235.7 343 250C343 263.79 353.79 274.67 369.44 274.67L369.43 274.72ZM327.71 273.25H335.14V226.86H327.7L327.71 273.25ZM327.09 214.25H335.76V206.03H327.09V214.25ZM314.36 274.11C314.63 274.11 316.36 274.02 318.78 273.84V268C316.92 268.08 315.78 268.08 315.07 268.08C307.64 268.08 305.61 266.32 305.61 260.13V233.13H318.69V226.86H305.6V214.92H298.53V219.69C298.53 225.26 297.29 227.69 290.3 227.69V233.17H298.17V261.38C298.17 269.95 302.24 274.2 314.35 274.2L314.36 274.11ZM252.73 267.74C243.98 267.74 239.91 264.82 239.91 260.31C239.91 252.09 253.08 250.77 268.64 250.77H272V257.93C272 261.38 265.55 267.74 252.73 267.74ZM252.46 274.28C259.89 274.28 268.91 271.1 273.06 266.86H273.15C274.03 271.45 280.67 274.46 286.41 274.02H286.59V267.21C280.84 267.48 279.43 266.5 279.43 262.08V245.33C279.43 229.86 270.43 225.53 258.03 225.53C240.26 225.53 235.84 233.93 235.66 239.94H243.09C243.36 236.4 246.8 232.25 257.94 232.25C268.38 232.25 271.82 236.32 271.82 242.06V244.8H269.08C250.78 244.8 243.44 246.57 238.85 249.67C234.78 252.41 232.75 255.94 232.75 260.1C232.75 266.55 237.17 274.24 252.46 274.24V274.28ZM201.19 274.69C216.48 274.69 223.73 266.11 224.88 258.69H217.45C215.69 263.64 210.2 267.98 201.1 267.98C188.54 267.98 182.71 260.55 182.71 249.98C182.71 239.41 188.63 232.12 201.1 232.12C210.2 232.12 215.77 235.48 217.54 242.91H225C224.2 232.39 214.92 225.4 201.13 225.4C184.42 225.4 175.13 235.57 175.13 249.98C175.13 263.77 183.97 274.65 201.21 274.65L201.19 274.69ZM142.86 274.65C150.55 274.65 157.8 272.35 162.22 265.27V273.27H169.64V226.86H162.2V252.67C162.2 262.4 154.33 267.97 143.81 267.97C137.35 267.97 130.81 265.84 130.81 255.41V226.86H123.39V255.24C123.39 268.5 130.72 274.69 142.84 274.69L142.86 274.65ZM104.56 252.14C104.56 261.6 97.13 267.88 85.9 267.88C74.67 267.88 67.07 260.72 67.07 249.88C67.07 239.27 74.41 232.29 85.64 232.29C97.04 232.29 104.56 238.04 104.56 246.7V252.14ZM104.56 206.08V233.31C99.5129 228.283 92.6836 225.454 85.56 225.44C69.91 225.44 59.48 235.25 59.48 249.93C59.48 264.78 69.64 274.69 84.67 274.69C92.67 274.69 100.94 271.69 104.92 267.35V273.27H112V206.08H104.56ZM8.45004 246.39C8.45004 236.49 16.68 232.16 25.87 232.16C35.06 232.16 42.93 236.4 42.93 246.39H8.45004ZM26.58 274.69C41.87 274.69 49.12 266.11 50.27 260.27H42.85C41.08 263.55 35.42 267.97 26.4 267.97C15.4 267.97 9.34004 262.04 8.40004 253.03L50.4 252.94V245.16C50.4 233.4 40.59 225.44 26.18 225.44C9.91004 225.44 0.540039 235.61 0.540039 249.93C0.540039 263.93 9.38004 274.69 26.62 274.69" fill="#235DFF"/>
</svg>
