<?xml version="1.0" encoding="UTF-8"?>
<svg width="94px" height="85px" viewBox="0 0 94 85" version="1.1" xmlns="http://www.w3.org/2000/svg" xmlns:xlink="http://www.w3.org/1999/xlink">
    <!-- Generator: Sketch 39.1 (31720) - http://www.bohemiancoding.com/sketch -->
    <title>Shape</title>
    <desc>Created with Sketch.</desc>
    <defs></defs>
    <g id="Page-1" stroke="none" stroke-width="1" fill="none" fill-rule="evenodd">
        <g id="noun_402957_cc" fill="#111F69">
            <path d="M85.4,9.4 C79.9,3.9 72.7,0.9 64.9,0.9 C58.5,0.9 52.4,3 47.3,6.8 C42.2,2.9 36.2,0.9 29.7,0.9 C22,0.9 14.7,3.9 9.2,9.4 C3.7,14.9 0.7,22.1 0.7,29.9 C0.7,37.6 3.7,44.8 9,50.2 L41.5,82.7 C43,84.2 45,85 47.2,85 C49.4,85 51.3,84.2 52.9,82.7 L85.3,50.4 L85.4,50.3 C90.8,44.9 93.7,37.6 93.7,30 C93.8,22.1 90.8,14.8 85.4,9.4 L85.4,9.4 Z M45.2,79.1 C44.6,78.5 44.3,77.8 44.3,77 C44.3,76.3 44.5,75.7 44.9,75.2 L45.2,74.9 L61.1,59 C61.6,58.5 61.8,57.9 61.8,57.2 C61.8,56.5 61.5,55.9 61.1,55.4 C60.2,54.5 58.5,54.5 57.6,55.4 L41.6,71.4 C40.5,72.5 38.5,72.5 37.4,71.4 C36.8,70.8 36.5,70.1 36.5,69.3 C36.5,68.5 36.8,67.7 37.4,67.2 L53.4,51.2 C53.9,50.7 54.1,50.1 54.1,49.4 C54.1,48.7 53.8,48.1 53.4,47.6 C52.5,46.7 50.8,46.7 49.9,47.6 L33.9,63.6 C32.8,64.7 30.8,64.7 29.7,63.6 C28.5,62.4 28.5,60.5 29.7,59.3 L45.7,43.3 C46.2,42.8 46.4,42.2 46.4,41.5 C46.4,40.8 46.1,40.2 45.7,39.7 C44.8,38.8 43.1,38.8 42.2,39.7 L26.2,55.7 C25.1,56.8 23.1,56.8 22,55.7 L22,55.7 L21.9,55.6 C20.8,54.4 20.8,52.6 21.9,51.4 L32.8,40.5 C35.8,40.6 38.6,39.4 40.9,37.1 L47.8,30.2 C50.7,32.6 53.8,34.1 56.8,34.5 C60.8,35 64.6,33.7 67.6,30.6 C68.6,29.6 68.6,28 67.6,27.1 C66.7,26.2 65,26.2 64.1,27.1 C62.1,29.1 59.9,29.9 57.5,29.6 C55,29.3 52.2,27.7 49.6,25 C48.7,24.1 47,24.1 46.1,25 L37.5,33.6 C36.2,34.9 34.7,35.6 33,35.6 L32.5,35.6 C32.4,35.6 32.2,35.5 32,35.5 C30.7,35.3 29.5,34.7 28.7,33.9 C27.9,33.1 28.1,32.9 28.2,32.8 C30.9,30 47.9,13 48,12.9 C52.5,8.4 58.5,5.9 64.9,5.9 C71.3,5.9 77.3,8.4 81.8,12.9 C86.3,17.4 88.8,23.4 88.8,29.8 C88.8,36.2 86.3,42.2 81.8,46.7 L49.5,79.1 C48.4,80.2 46.4,80.2 45.2,79.1 L45.2,79.1 Z M43.6,10.3 C40.1,13.8 27,26.9 24.6,29.3 C22.3,31.6 22.5,34.9 25.1,37.5 C25.7,38.1 26.5,38.7 27.3,39.1 L18.4,48 C17.7,48.7 17.1,49.6 16.7,50.5 L13,46.9 L12.9,46.8 C8.4,42.3 5.9,36.3 5.9,29.9 C5.9,23.5 8.4,17.5 12.9,13 C17.4,8.5 23.4,6 29.8,6 L29.8,5 L29.8,6 C34.8,5.9 39.5,7.4 43.6,10.3 L43.6,10.3 Z" id="Shape"></path>
        </g>
    </g>
</svg>