<svg width="1108" height="756" viewBox="0 0 1108 756" fill="none" xmlns="http://www.w3.org/2000/svg">
<g clip-path="url(#clip0)">
<path d="M549.568 56.5386C567.532 86.9803 568.899 124.821 567.727 157.588C566.556 190.144 562.846 217.203 552.887 244.474C542.734 271.744 526.332 299.227 504.462 305.991C482.398 312.968 455.061 299.438 425.381 289.079C395.701 278.932 363.873 271.744 340.637 249.125C317.401 226.505 302.756 188.453 316.034 164.141C329.312 139.83 370.317 129.049 399.216 100.721C428.31 72.605 445.102 26.7311 470.877 15.104C496.652 3.477 531.408 26.0968 549.568 56.5386Z" fill="url(#paint0_linear)" fill-opacity="0.5"/>
<path d="M343.098 380.573C372.448 374.637 392.658 373.968 415.353 372.832C438.048 371.696 463.398 370.142 486.738 381.861C510.248 393.629 531.919 418.719 531.803 444.22C531.733 469.535 509.922 495.076 488.886 512.331C468.021 529.635 447.931 538.653 429.251 539.766C410.57 540.879 393.254 534.272 378.801 524.933C364.393 515.41 352.848 503.154 329.682 483.37C306.346 463.536 271.173 436.31 273.069 416.869C274.919 397.612 313.624 386.274 343.098 380.573Z" fill="url(#paint1_linear)" fill-opacity="0.5"/>
<path d="M30.5041 71.4563C47.5505 38.7899 72.2857 15.9105 97.8223 9.03995C123.358 2.16939 149.593 11.163 179.348 22.4454C209.259 33.6163 242.588 46.9313 258.065 77.5607C273.542 108.19 271.065 155.989 247.342 163.748C223.618 171.507 178.546 139.081 132.956 136.693C87.3674 134.305 41.2114 161.556 22.7589 154.211C4.35968 146.609 13.7172 104.156 30.5041 71.4563Z" fill="url(#paint2_linear)" fill-opacity="0.5"/>
<path d="M1137.12 736.15C1117.02 767.033 1090.2 787.436 1064.13 791.827C1038.05 796.219 1012.8 784.752 984.26 770.669C955.557 756.683 923.659 740.235 911.189 708.263C898.718 676.291 905.765 628.95 930.123 623.5C954.481 618.051 996.238 654.648 1041.39 661.394C1086.54 668.14 1135.09 645.439 1152.76 654.519C1170.34 663.849 1156.96 705.21 1137.12 736.15Z" fill="url(#paint3_linear)" fill-opacity="0.5"/>
<path d="M1083.9 516.086C1048.85 527.437 1015.17 526.419 992.142 513.421C969.113 500.422 956.704 475.619 943.39 446.717C929.885 417.784 915.446 384.927 925.876 352.233C936.305 319.538 971.575 287.181 993.934 298.275C1016.29 309.369 1025.71 364.089 1056.55 397.746C1087.4 431.403 1139.42 444.318 1147.43 462.49C1155.23 480.808 1118.8 504.529 1083.9 516.086Z" fill="url(#paint4_linear)" fill-opacity="0.5"/>
<path d="M237.126 320.714C248.387 333.959 251.091 361.076 237.449 392.693C223.807 424.31 193.983 460.138 180.118 449.62C166.357 439.544 168.988 382.984 145.898 346.243C122.809 309.501 73.9981 292.579 64.9653 262.263C56.0962 231.658 87.0046 187.66 113.88 193.318C140.592 199.266 163.435 254.58 184.661 281.483C205.991 308.826 225.703 307.758 237.126 320.714Z" fill="url(#paint5_linear)" fill-opacity="0.5"/>
<path d="M789.819 468.798C818.811 475.489 844.865 501.917 851.834 528.494C858.202 554.989 844.883 581.551 837.385 622.94C829.602 663.986 827.605 720.463 784.194 759.712C741.066 799.304 656.525 821.667 583.698 787.044C511.473 752.502 450.998 660.37 471.9 601.583C493.12 542.534 595.469 515.882 662.307 495.992C729.463 475.84 761.11 462.45 789.819 468.798Z" fill="url(#paint6_linear)" fill-opacity="0.5"/>
<path d="M390.095 666.037C400.03 694.084 391.739 730.257 373.069 750.414C354.144 770.021 324.586 773.06 285.65 788.974C246.851 804.464 198.145 833.126 141.719 817.601C85.1547 802.5 20.8698 743.214 10.9411 663.19C1.26628 583.717 46.4768 483.21 107.288 469.253C168.49 455.423 245.96 527.422 298.647 573.106C351.727 618.918 380.023 638.414 390.095 666.037Z" fill="url(#paint7_linear)" fill-opacity="0.5"/>
<path d="M1219.88 119.035C1240.97 162.309 1246.19 216.017 1229.93 261.199C1213.54 305.943 1175.39 342.029 1137.34 343.979C1099.15 346.233 1061.2 314.046 1036.79 293.376C1012.24 273.01 1001.94 264.121 971.414 256.574C940.888 249.027 889.99 243.128 856.011 206.848C821.607 170.741 803.838 104.121 829.105 72.0599C854.655 40.1305 923.523 42.8913 979.967 38.3723C1036.55 33.548 1081.28 21.7072 1121.7 32.3802C1162.26 42.7479 1198.79 75.7611 1219.88 119.035Z" fill="url(#paint8_linear)" fill-opacity="0.5"/>
<path d="M807.237 226.418C830.092 279.868 838.821 359.397 800.735 398.703C762.65 438.01 678.393 437.018 646.675 401.981C615.229 367.042 636.868 298.257 637.22 248.926C637.845 199.695 617.182 169.918 625.773 151.407C634.364 132.895 671.935 125.55 709.396 135.475C746.758 145.673 784.382 172.968 807.237 226.418Z" fill="url(#paint9_linear)" fill-opacity="0.5"/>
</g>
<defs>
<linearGradient id="paint0_linear" x1="453.5" y1="-55.5" x2="303" y2="357.5" gradientUnits="userSpaceOnUse">
<stop stop-color="white"/>
<stop offset="1" stop-color="white" stop-opacity="0"/>
</linearGradient>
<linearGradient id="paint1_linear" x1="328.5" y1="387.5" x2="540.5" y2="521" gradientUnits="userSpaceOnUse">
<stop stop-color="white"/>
<stop offset="1" stop-color="white" stop-opacity="0"/>
</linearGradient>
<linearGradient id="paint2_linear" x1="-16.5" y1="7" x2="276" y2="251" gradientUnits="userSpaceOnUse">
<stop stop-color="white"/>
<stop offset="1" stop-color="white" stop-opacity="0"/>
</linearGradient>
<linearGradient id="paint3_linear" x1="1104" y1="739.5" x2="852.5" y2="630" gradientUnits="userSpaceOnUse">
<stop stop-color="white"/>
<stop offset="1" stop-color="white" stop-opacity="0"/>
</linearGradient>
<linearGradient id="paint4_linear" x1="1035.4" y1="296.051" x2="933.5" y2="587.5" gradientUnits="userSpaceOnUse">
<stop stop-color="white"/>
<stop offset="1" stop-color="white" stop-opacity="0"/>
</linearGradient>
<linearGradient id="paint5_linear" x1="233.5" y1="193" x2="70" y2="623" gradientUnits="userSpaceOnUse">
<stop stop-color="white"/>
<stop offset="1" stop-color="white" stop-opacity="0"/>
</linearGradient>
<linearGradient id="paint6_linear" x1="841.5" y1="854.5" x2="422.5" y2="489.5" gradientUnits="userSpaceOnUse">
<stop stop-color="white"/>
<stop offset="1" stop-color="white" stop-opacity="0"/>
</linearGradient>
<linearGradient id="paint7_linear" x1="66" y1="915.5" x2="341.5" y2="457" gradientUnits="userSpaceOnUse">
<stop stop-color="white"/>
<stop offset="1" stop-color="white" stop-opacity="0"/>
</linearGradient>
<linearGradient id="paint8_linear" x1="1176.5" y1="87.5" x2="620" y2="16.5" gradientUnits="userSpaceOnUse">
<stop stop-color="white"/>
<stop offset="1" stop-color="white" stop-opacity="0"/>
</linearGradient>
<linearGradient id="paint9_linear" x1="645.5" y1="120.5" x2="799" y2="428" gradientUnits="userSpaceOnUse">
<stop stop-color="white"/>
<stop offset="1" stop-color="white" stop-opacity="0"/>
</linearGradient>
<clipPath id="clip0">
<rect width="1108" height="756" fill="white"/>
</clipPath>
</defs>
</svg>
