<svg width="1108" height="756" viewBox="0 0 1108 756" fill="none" xmlns="http://www.w3.org/2000/svg">
<g clip-path="url(#clip0)">
<path d="M406.568 -23.4609C424.532 6.98078 425.899 44.8215 424.727 77.5887C423.556 110.144 419.846 137.204 409.887 164.474C399.734 191.745 383.332 219.227 361.462 225.992C339.398 232.968 312.061 219.439 282.381 209.08C252.701 198.933 220.873 191.745 197.637 169.125C174.401 146.505 159.756 108.453 173.034 84.1421C186.312 59.831 227.317 49.0495 256.216 20.7218C285.31 -7.39447 302.102 -53.2684 327.877 -64.8955C353.652 -76.5225 388.408 -53.9026 406.568 -23.4609Z" fill="white" fill-opacity="0.3"/>
<path d="M200.097 300.573C229.447 294.638 249.657 293.968 272.352 292.832C295.047 291.696 320.397 290.142 343.737 301.861C367.247 313.63 388.918 338.72 388.802 364.22C388.732 389.536 366.921 415.077 345.885 432.332C325.02 449.636 304.93 458.653 286.25 459.766C267.569 460.88 250.253 454.273 235.8 444.934C221.392 435.41 209.847 423.154 186.681 403.37C163.345 383.537 128.172 356.311 130.068 336.869C131.918 317.612 170.623 306.275 200.097 300.573Z" fill="white" fill-opacity="0.3"/>
<path d="M906.097 469.573C935.447 463.637 955.657 462.968 978.352 461.832C1001.05 460.696 1026.4 459.142 1049.74 470.861C1073.25 482.629 1094.92 507.719 1094.8 533.22C1094.73 558.535 1072.92 584.076 1051.89 601.331C1031.02 618.635 1010.93 627.653 992.25 628.766C973.569 629.879 956.253 623.272 941.8 613.933C927.392 604.41 915.847 592.154 892.681 572.37C869.345 552.536 834.172 525.31 836.068 505.869C837.918 486.612 876.623 475.274 906.097 469.573Z" fill="white" fill-opacity="0.3"/>
<path d="M-112.496 -8.54317C-95.4499 -41.2096 -70.7147 -64.089 -45.1781 -70.9596C-19.6415 -77.8301 6.59321 -68.8364 36.3481 -57.554C66.2593 -46.3832 99.5876 -33.0682 115.065 -2.43876C130.542 28.1907 128.065 75.99 104.342 83.7488C80.6184 91.5076 35.5457 59.0812 -10.0437 56.6937C-55.633 54.3061 -101.789 81.5566 -120.241 74.2112C-138.641 66.6098 -129.283 24.1563 -112.496 -8.54317Z" fill="white" fill-opacity="0.3"/>
<path d="M892.686 718.726C869.849 733.524 845.63 739.234 826.718 734.364C807.805 729.493 794.213 714.172 779.19 696.1C764.027 678.042 747.447 657.363 748.637 632.047C749.828 606.731 768.802 576.908 786.872 580.548C804.943 584.188 822.122 621.422 850.557 639.536C878.992 657.649 918.569 656.919 927.759 668.351C936.821 679.928 915.367 703.812 892.686 718.726Z" fill="white" fill-opacity="0.3"/>
<path d="M886.904 432.086C851.85 443.438 818.171 442.419 795.141 429.421C772.112 416.423 759.703 391.62 746.389 362.717C732.884 333.784 718.445 300.927 728.875 268.233C739.304 235.538 774.574 203.182 796.933 214.275C819.291 225.369 828.712 280.089 859.555 313.746C890.398 347.403 942.419 360.318 950.432 378.49C958.227 396.808 921.797 420.53 886.904 432.086Z" fill="white" fill-opacity="0.3"/>
<path d="M94.1265 240.714C105.387 253.959 108.091 281.076 94.4489 312.693C80.807 344.311 50.9826 380.139 37.1178 369.621C23.3574 359.544 25.9882 302.984 2.89835 266.243C-20.1915 229.502 -69.0019 212.58 -78.0347 182.264C-86.9038 151.659 -55.9954 107.661 -29.1197 113.319C-2.40765 119.266 20.4354 174.581 41.6608 201.483C62.9905 228.827 82.7025 227.759 94.1265 240.714Z" fill="white" fill-opacity="0.3"/>
<path d="M646.818 388.798C675.81 395.489 701.864 421.917 708.833 448.494C715.201 474.989 701.882 501.552 694.384 542.941C686.601 583.986 684.604 640.464 641.193 679.712C598.065 719.304 513.524 741.667 440.697 707.044C368.472 672.503 307.997 580.371 328.899 521.584C350.119 462.535 452.468 435.883 519.306 415.993C586.462 395.841 618.109 382.451 646.818 388.798Z" fill="white" fill-opacity="0.3"/>
<path d="M247.095 586.038C257.03 614.084 248.739 650.258 230.069 670.415C211.144 690.022 181.586 693.061 142.65 708.975C103.851 724.465 55.1451 753.126 -1.28143 737.602C-57.8456 722.501 -122.13 663.215 -132.059 583.191C-141.734 503.718 -96.5235 403.211 -35.7125 389.253C25.4901 375.423 102.96 447.423 155.647 493.107C208.727 538.918 237.023 558.415 247.095 586.038Z" fill="white" fill-opacity="0.3"/>
<path d="M1076.88 39.0356C1097.97 82.3095 1103.19 136.018 1086.93 181.199C1070.54 225.944 1032.39 262.03 994.341 263.979C956.148 266.234 918.197 234.046 893.79 213.376C869.24 193.011 858.941 184.122 828.414 176.575C797.888 169.028 746.99 163.129 713.011 126.848C678.607 90.7413 660.838 24.1215 686.105 -7.9396C711.655 -39.869 780.523 -37.1082 836.967 -41.6272C893.553 -46.4515 938.279 -58.2923 978.697 -47.6193C1019.26 -37.2516 1055.79 -4.23835 1076.88 39.0356Z" fill="white" fill-opacity="0.3"/>
<path d="M664.236 146.419C687.091 199.868 695.821 279.398 657.735 318.704C619.65 358.01 535.393 357.019 503.675 321.981C472.229 287.043 493.868 218.258 494.22 168.927C494.845 119.696 474.182 89.9186 482.773 71.4071C491.364 52.8956 528.934 45.5502 566.395 55.4755C603.757 65.6738 641.381 92.9691 664.236 146.419Z" fill="white" fill-opacity="0.3"/>
</g>
<defs>
<clipPath id="clip0">
<rect width="1108" height="756" fill="white"/>
</clipPath>
</defs>
</svg>
