<svg width="1546" height="1003" viewBox="0 0 1546 1003" fill="none" xmlns="http://www.w3.org/2000/svg">
<g clip-path="url(#clip0)">
<path d="M549.568 76.5391C567.532 106.981 568.899 144.822 567.727 177.589C566.556 210.144 562.846 237.204 552.887 264.474C542.734 291.745 526.332 319.227 504.462 325.992C482.398 332.968 455.061 319.439 425.381 309.08C395.701 298.933 363.873 291.745 340.637 269.125C317.401 246.505 302.756 208.453 316.034 184.142C329.312 159.831 370.317 149.05 399.216 120.722C428.31 92.6055 445.102 46.7316 470.877 35.1045C496.652 23.4775 531.408 46.0974 549.568 76.5391Z" fill="white" fill-opacity="0.1"/>
<path d="M784.412 68.6041C808.125 40.4015 837.226 23.4181 863.644 22.2376C890.063 21.057 913.729 35.5157 940.337 52.9708C967.121 70.3509 996.777 90.5638 1005.26 123.817C1013.74 157.07 1000.98 203.201 976.135 205.641C951.295 208.081 914.309 166.668 870.317 154.469C826.325 142.271 775.365 158.886 758.94 147.721C742.622 136.317 760.946 96.8951 784.412 68.6041Z" fill="white" fill-opacity="0.1"/>
<path d="M197.126 171.714C208.387 184.959 211.091 212.076 197.449 243.693C183.807 275.31 153.983 311.138 140.118 300.62C126.357 290.544 128.988 233.984 105.898 197.243C82.8085 160.501 33.9981 143.579 24.9653 113.263C16.0962 82.6582 47.0046 38.66 73.8803 44.3181C100.592 50.2655 123.435 105.58 144.661 132.483C165.991 159.826 185.703 158.758 197.126 171.714Z" fill="white" fill-opacity="0.1"/>
<path d="M732.299 807.329C730.99 823.494 714.885 843.166 685.03 855.023C655.174 866.881 611.866 870.841 609.658 854.757C607.228 839.032 646.274 803.458 655.279 763.99C664.284 724.522 643.249 681.16 657.289 655.204C671.627 629.164 721.04 620.529 735.036 641.991C748.734 663.535 727.314 715.092 723.568 746.84C719.601 778.948 733.309 791.247 732.299 807.329Z" fill="white" fill-opacity="0.1"/>
<path d="M1289.15 939.358C1264.82 967.72 1208.15 982.581 1136.43 964.248C1064.72 945.916 978.615 894.641 996.284 861.666C1013.05 829.061 1134.03 815.626 1204.27 754.246C1274.51 692.866 1294.03 583.54 1355.36 554.167C1417.36 525.044 1521.17 575.873 1518.19 634.839C1514.55 693.554 1404.79 760.656 1354.8 814.769C1303.92 869.252 1312.82 910.746 1289.15 939.358Z" fill="white" fill-opacity="0.1"/>
<path d="M299.121 474.094C291.155 459.724 292.373 439.268 300.704 426.589C309.224 414.186 325.045 409.837 344.8 397.621C364.518 385.649 388.432 365.601 420.578 368.913C452.76 371.982 493.173 398.412 505.874 441.089C518.386 483.489 502.924 542.347 471.077 555.491C439.006 568.601 390.253 536.449 357.395 516.371C324.312 496.259 307.124 488.22 299.121 474.094Z" fill="white" fill-opacity="0.1"/>
<path d="M1230.67 117.18C1238.36 122.27 1243.05 132.77 1242.19 141.242C1241.17 149.625 1234.42 155.891 1227.75 167.093C1221.03 178.164 1214.32 194.343 1197.46 201.026C1180.64 207.838 1153.67 205.154 1136.29 187.198C1119.07 169.331 1111.51 136.019 1123.96 121.222C1136.53 106.382 1169.14 109.754 1190.7 111.235C1212.38 112.674 1223.02 112.222 1230.67 117.18Z" fill="white" fill-opacity="0.1"/>
<path d="M1339.76 288.615C1323.63 285.481 1308.74 271.399 1304.39 256.867C1300.36 242.368 1307.2 227.453 1310.54 204.468C1314.04 181.667 1314.06 150.461 1337.26 127.965C1360.29 105.285 1406.52 91.3149 1447.37 109.018C1487.9 126.688 1523.05 176.366 1512.64 209.21C1502.07 242.205 1446.11 258.886 1409.6 271.15C1372.93 283.565 1355.73 291.564 1339.76 288.615Z" fill="white" fill-opacity="0.1"/>
<path d="M388.404 944.73C377.303 942.573 367.056 932.881 364.056 922.878C361.286 912.899 365.993 902.633 368.292 886.813C370.704 871.119 370.713 849.64 386.681 834.157C402.538 818.546 434.353 808.931 462.474 821.116C490.366 833.277 514.558 867.47 507.399 890.077C500.122 912.787 461.6 924.268 436.476 932.71C411.235 941.255 399.392 946.76 388.404 944.73Z" fill="white" fill-opacity="0.1"/>
<path d="M390.095 666.037C400.03 694.084 391.739 730.257 373.069 750.414C354.144 770.021 324.586 773.06 285.65 788.974C246.851 804.464 198.145 833.126 141.719 817.601C85.1544 802.5 20.8695 743.214 10.9408 663.19C1.26597 583.717 46.4765 483.21 107.288 469.253C168.49 455.423 245.96 527.422 298.647 573.106C351.727 618.918 380.023 638.414 390.095 666.037Z" fill="white" fill-opacity="0.1"/>
<path d="M1285.72 398.489C1299.15 439.895 1297.07 488.649 1276.83 527.064C1256.51 565.07 1217.81 592.585 1183.49 589.542C1149 586.754 1119.07 553.153 1099.81 531.571C1080.39 510.244 1072.29 500.987 1045.9 490.386C1019.51 479.786 974.674 468.097 948.811 431.331C922.546 394.667 915.018 332.771 941.681 307.24C968.58 281.862 1029.91 293.002 1081.02 296.059C1132.3 298.86 1173.84 293.886 1208.7 308.53C1243.71 322.92 1272.28 357.082 1285.72 398.489Z" fill="white" fill-opacity="0.1"/>
<path d="M1050.93 723.666C1046.47 749.654 1032.49 773.478 1012.42 785.215C992.424 796.719 966.257 795.968 950.351 781.449C934.296 766.996 928.65 738.709 925.009 720.529C921.22 702.415 919.734 694.676 909.7 679.342C899.667 664.009 880.937 641.147 878.115 612.802C875.07 584.356 887.86 550.26 907.634 547.457C927.482 544.82 954.388 573.642 978.471 594.521C1002.7 615.334 1024.26 628.538 1037.34 649.115C1050.57 669.626 1055.4 697.678 1050.93 723.666Z" fill="white" fill-opacity="0.1"/>
<path d="M820.236 331.419C843.091 384.868 851.821 464.398 813.735 503.704C775.65 543.01 691.393 542.019 659.675 506.981C628.229 472.043 649.868 403.258 650.22 353.927C650.845 304.696 630.182 274.919 638.773 256.407C647.364 237.896 684.934 230.55 722.395 240.476C759.757 250.674 797.381 277.969 820.236 331.419Z" fill="white" fill-opacity="0.1"/>
</g>
<defs>
<clipPath id="clip0">
<rect width="1546" height="1003" fill="white"/>
</clipPath>
</defs>
</svg>
