<svg width="1108" height="756" viewBox="0 0 1108 756" fill="none" xmlns="http://www.w3.org/2000/svg">
<g clip-path="url(#clip0)">
<path d="M549.568 56.5385C567.532 86.9802 568.899 124.821 567.727 157.588C566.556 190.144 562.846 217.203 552.887 244.474C542.734 271.744 526.332 299.227 504.462 305.991C482.398 312.968 455.061 299.438 425.381 289.079C395.701 278.932 363.873 271.744 340.637 249.125C317.401 226.505 302.756 188.453 316.034 164.141C329.312 139.83 370.317 129.049 399.216 100.721C428.31 72.6049 445.102 26.731 470.877 15.1039C496.652 3.47687 531.408 26.0967 549.568 56.5385Z" fill="white" fill-opacity="0.3"/>
<path d="M343.097 380.573C372.447 374.637 392.657 373.968 415.352 372.832C438.047 371.696 463.397 370.142 486.737 381.861C510.247 393.629 531.918 418.719 531.802 444.22C531.732 469.535 509.921 495.076 488.885 512.331C468.02 529.635 447.93 538.653 429.25 539.766C410.569 540.879 393.253 534.272 378.8 524.933C364.392 515.41 352.847 503.154 329.681 483.37C306.345 463.536 271.172 436.31 273.068 416.869C274.918 397.612 313.623 386.274 343.097 380.573Z" fill="white" fill-opacity="0.3"/>
<path d="M30.5037 71.4562C47.5501 38.7898 72.2853 15.9104 97.8219 9.03984C123.358 2.16928 149.593 11.1629 179.348 22.4453C209.259 33.6162 242.588 46.9312 258.065 77.5606C273.542 108.19 271.065 155.989 247.342 163.748C223.618 171.507 178.546 139.081 132.956 136.693C87.367 134.305 41.211 161.556 22.7585 154.211C4.35932 146.609 13.7168 104.156 30.5037 71.4562Z" fill="white" fill-opacity="0.3"/>
<path d="M1137.12 736.15C1117.02 767.033 1090.2 787.436 1064.13 791.827C1038.05 796.219 1012.8 784.752 984.26 770.669C955.557 756.683 923.659 740.235 911.189 708.263C898.718 676.291 905.765 628.95 930.123 623.5C954.481 618.051 996.238 654.648 1041.39 661.394C1086.54 668.14 1135.09 645.439 1152.76 654.519C1170.34 663.849 1156.96 705.21 1137.12 736.15Z" fill="white" fill-opacity="0.3"/>
<path d="M1083.9 516.086C1048.85 527.437 1015.17 526.419 992.141 513.421C969.112 500.422 956.703 475.619 943.389 446.717C929.884 417.784 915.445 384.927 925.875 352.233C936.304 319.538 971.574 287.181 993.933 298.275C1016.29 309.369 1025.71 364.089 1056.55 397.746C1087.4 431.403 1139.42 444.318 1147.43 462.49C1155.23 480.808 1118.8 504.529 1083.9 516.086Z" fill="white" fill-opacity="0.3"/>
<path d="M237.126 320.714C248.387 333.959 251.091 361.076 237.449 392.693C223.807 424.31 193.983 460.138 180.118 449.62C166.357 439.544 168.988 382.984 145.898 346.243C122.809 309.501 73.9981 292.579 64.9653 262.263C56.0962 231.658 87.0046 187.66 113.88 193.318C140.592 199.266 163.435 254.58 184.661 281.483C205.991 308.826 225.703 307.758 237.126 320.714Z" fill="white" fill-opacity="0.3"/>
<path d="M789.818 468.798C818.81 475.489 844.864 501.917 851.833 528.494C858.201 554.989 844.882 581.551 837.384 622.94C829.601 663.986 827.604 720.463 784.193 759.712C741.065 799.304 656.524 821.667 583.697 787.044C511.472 752.502 450.997 660.37 471.899 601.583C493.119 542.534 595.468 515.882 662.306 495.992C729.462 475.84 761.109 462.45 789.818 468.798Z" fill="white" fill-opacity="0.3"/>
<path d="M390.095 666.037C400.03 694.084 391.739 730.257 373.069 750.414C354.144 770.021 324.586 773.06 285.65 788.974C246.851 804.464 198.145 833.126 141.719 817.601C85.1544 802.5 20.8695 743.214 10.9408 663.19C1.26597 583.717 46.4765 483.21 107.288 469.253C168.49 455.423 245.96 527.422 298.647 573.106C351.727 618.918 380.023 638.414 390.095 666.037Z" fill="white" fill-opacity="0.3"/>
<path d="M1219.88 119.035C1240.97 162.309 1246.19 216.017 1229.93 261.199C1213.54 305.943 1175.39 342.029 1137.34 343.979C1099.15 346.233 1061.2 314.046 1036.79 293.376C1012.24 273.01 1001.94 264.121 971.414 256.574C940.888 249.027 889.99 243.128 856.011 206.848C821.607 170.741 803.838 104.121 829.105 72.0598C854.655 40.1304 923.523 42.8912 979.967 38.3722C1036.55 33.5479 1081.28 21.7071 1121.7 32.3801C1162.26 42.7478 1198.79 75.761 1219.88 119.035Z" fill="white" fill-opacity="0.3"/>
<path d="M807.236 226.418C830.091 279.868 838.821 359.397 800.735 398.703C762.65 438.01 678.393 437.018 646.675 401.981C615.229 367.042 636.868 298.257 637.22 248.926C637.845 199.695 617.182 169.918 625.773 151.407C634.364 132.895 671.934 125.55 709.395 135.475C746.757 145.673 784.381 172.968 807.236 226.418Z" fill="white" fill-opacity="0.3"/>
</g>
<defs>
<clipPath id="clip0">
<rect width="1108" height="756" fill="white"/>
</clipPath>
</defs>
</svg>
