<svg width="1340" height="957" viewBox="0 0 1340 957" fill="none" xmlns="http://www.w3.org/2000/svg">
<path d="M589.568 131.538C607.532 161.98 608.899 199.821 607.727 232.588C606.556 265.144 602.846 292.203 592.887 319.474C582.734 346.744 566.332 374.227 544.462 380.991C522.398 387.968 495.061 374.438 465.381 364.079C435.701 353.932 403.873 346.744 380.637 324.125C357.401 301.505 342.756 263.453 356.034 239.141C369.312 214.83 410.317 204.049 439.216 175.721C468.31 147.605 485.102 101.731 510.877 90.1039C536.652 78.4769 571.408 101.097 589.568 131.538Z" fill="white" fill-opacity="0.3"/>
<path d="M383.097 455.573C412.447 449.637 432.657 448.968 455.352 447.832C478.047 446.696 503.397 445.142 526.737 456.861C550.247 468.629 571.918 493.719 571.802 519.22C571.732 544.535 549.921 570.076 528.885 587.331C508.02 604.635 487.93 613.653 469.25 614.766C450.569 615.879 433.253 609.272 418.8 599.933C404.392 590.41 392.847 578.154 369.681 558.37C346.345 538.536 311.172 511.31 313.068 491.869C314.918 472.612 353.623 461.274 383.097 455.573Z" fill="white" fill-opacity="0.3"/>
<path d="M70.5037 146.456C87.5501 113.79 112.285 90.9104 137.822 84.0398C163.358 77.1693 189.593 86.1629 219.348 97.4453C249.259 108.616 282.588 121.931 298.065 152.561C313.542 183.19 311.065 230.989 287.342 238.748C263.618 246.507 218.546 214.081 172.956 211.693C127.367 209.305 81.211 236.556 62.7585 229.211C44.3593 221.609 53.7168 179.156 70.5037 146.456Z" fill="white" fill-opacity="0.3"/>
<path d="M1177.12 811.15C1157.02 842.033 1130.2 862.436 1104.13 866.827C1078.05 871.219 1052.8 859.752 1024.26 845.669C995.557 831.683 963.659 815.235 951.189 783.263C938.718 751.291 945.765 703.95 970.123 698.5C994.481 693.051 1036.24 729.648 1081.39 736.394C1126.54 743.14 1175.09 720.439 1192.76 729.519C1210.34 738.849 1196.96 780.21 1177.12 811.15Z" fill="white" fill-opacity="0.3"/>
<path d="M1123.9 591.086C1088.85 602.437 1055.17 601.419 1032.14 588.421C1009.11 575.422 996.703 550.619 983.389 521.717C969.884 492.784 955.445 459.927 965.875 427.233C976.304 394.538 1011.57 362.181 1033.93 373.275C1056.29 384.369 1065.71 439.089 1096.55 472.746C1127.4 506.403 1179.42 519.318 1187.43 537.49C1195.23 555.808 1158.8 579.529 1123.9 591.086Z" fill="white" fill-opacity="0.3"/>
<path d="M277.126 395.714C288.387 408.959 291.091 436.076 277.449 467.693C263.807 499.31 233.983 535.138 220.118 524.62C206.357 514.544 208.988 457.984 185.898 421.243C162.809 384.501 113.998 367.579 104.965 337.263C96.0962 306.658 127.005 262.66 153.88 268.318C180.592 274.266 203.435 329.58 224.661 356.483C245.991 383.826 265.703 382.758 277.126 395.714Z" fill="white" fill-opacity="0.3"/>
<path d="M829.818 543.798C858.81 550.489 884.864 576.917 891.833 603.494C898.201 629.989 884.882 656.551 877.384 697.94C869.601 738.986 867.604 795.463 824.193 834.712C781.065 874.304 696.524 896.667 623.697 862.044C551.472 827.502 490.997 735.37 511.899 676.583C533.119 617.534 635.468 590.882 702.306 570.992C769.462 550.84 801.109 537.45 829.818 543.798Z" fill="white" fill-opacity="0.3"/>
<path d="M430.095 741.037C440.03 769.084 431.739 805.257 413.069 825.414C394.144 845.021 364.586 848.06 325.65 863.974C286.851 879.464 238.145 908.126 181.719 892.601C125.154 877.5 60.8695 818.214 50.9408 738.19C41.266 658.717 86.4765 558.21 147.288 544.253C208.49 530.423 285.96 602.422 338.647 648.106C391.727 693.918 420.023 713.414 430.095 741.037Z" fill="white" fill-opacity="0.3"/>
<path d="M1259.88 194.035C1280.97 237.309 1286.19 291.017 1269.93 336.199C1253.54 380.943 1215.39 417.029 1177.34 418.979C1139.15 421.233 1101.2 389.046 1076.79 368.376C1052.24 348.01 1041.94 339.121 1011.41 331.574C980.888 324.027 929.99 318.128 896.011 281.848C861.607 245.741 843.838 179.121 869.105 147.06C894.655 115.13 963.523 117.891 1019.97 113.372C1076.55 108.548 1121.28 96.7071 1161.7 107.38C1202.26 117.748 1238.79 150.761 1259.88 194.035Z" fill="white" fill-opacity="0.3"/>
<path d="M847.236 301.418C870.091 354.868 878.821 434.397 840.735 473.703C802.65 513.01 718.393 512.018 686.675 476.981C655.229 442.042 676.868 373.257 677.22 323.926C677.845 274.695 657.182 244.918 665.773 226.407C674.364 207.895 711.934 200.55 749.395 210.475C786.757 220.673 824.381 247.968 847.236 301.418Z" fill="white" fill-opacity="0.3"/>
</svg>
