<svg  viewBox="0 0 1000 1000" fill="none" xmlns="http://www.w3.org/2000/svg">
<g clip-path="url(#clip0)">
<rect width="1000" height="1000" fill="#E82C4E"/>
<path d="M160.79 366.111C178.754 396.553 180.121 434.393 178.949 467.16C177.778 499.716 174.068 526.775 164.109 554.046C153.956 581.317 137.554 608.799 115.684 615.564C93.6197 622.54 66.283 609.01 36.6031 598.652C6.92323 588.504 -24.9046 581.317 -48.1408 558.697C-71.377 536.077 -86.0217 498.025 -72.7438 473.714C-59.466 449.403 -18.4609 438.621 10.438 410.294C39.5321 382.177 56.3246 336.303 82.0993 324.676C107.874 313.049 142.631 335.669 160.79 366.111Z" fill="url(#paint0_linear)" fill-opacity="0.15"/>
<path d="M708.097 91.5727C737.447 85.6371 757.657 84.9678 780.352 83.8316C803.047 82.6955 828.397 81.1417 851.737 92.8607C875.247 104.629 896.918 129.719 896.802 155.22C896.732 180.535 874.921 206.076 853.885 223.331C833.02 240.635 812.93 249.653 794.25 250.766C775.569 251.879 758.253 245.272 743.8 235.933C729.392 226.41 717.847 214.153 694.681 194.37C671.345 174.536 636.172 147.31 638.068 127.869C639.918 108.612 678.623 97.2744 708.097 91.5727Z" fill="url(#paint1_linear)" fill-opacity="0.15"/>
<path d="M317.569 739.643C334.264 772.49 338.527 805.914 329.291 830.693C320.055 855.473 297.499 871.608 271.035 889.28C244.571 907.145 214.377 926.546 180.454 921.359C146.53 916.173 109.054 886.399 116.514 862.58C123.974 838.761 176.546 820.897 204.964 785.168C233.382 749.44 237.999 696.039 254.695 685.282C271.568 674.717 300.696 706.988 317.569 739.643Z" fill="url(#paint2_linear)" fill-opacity="0.15"/>
<path d="M308.596 26.4483C324.918 32.4313 340.625 54.7011 344.321 88.9369C348.016 123.173 339.701 169.042 322.455 166.715C305.516 164.721 279.955 114.198 241.766 93.5903C203.577 72.9824 152.762 82.2892 129.972 60.3517C107.182 38.0818 112.418 -15.4323 138.595 -23.742C164.773 -31.7192 211.893 5.17562 243.614 18.1387C275.643 31.4341 292.273 20.7978 308.596 26.4483Z" fill="url(#paint3_linear)" fill-opacity="0.15"/>
<path d="M1047.39 895.917C1065.51 919.521 1068.8 956.486 1057.28 981.426C1045.34 1005.92 1018.16 1017.95 986.051 1045.11C953.938 1071.83 916.472 1114.14 858.01 1116.82C799.548 1119.93 720.089 1083.41 685.918 1010.37C652.158 937.781 664.097 828.223 717.619 796.157C771.552 764.091 867.479 808.627 931.705 835.794C996.343 862.961 1029.28 872.759 1047.39 895.917Z" fill="url(#paint4_linear)" fill-opacity="0.15"/>
<path d="M1152.27 395.101C1189.68 425.408 1217.1 471.879 1221.47 519.696C1225.52 567.177 1206.19 616.005 1172.53 633.852C1138.87 652.036 1090.87 638.903 1060.02 630.485C1029.16 622.403 1016.07 618.699 985.214 624.76C954.358 630.822 905.736 646.985 859.608 628.464C813.168 610.28 768.909 557.412 778.26 517.676C787.922 477.94 851.504 451.337 900.749 423.388C949.995 395.101 985.526 365.468 1026.67 358.059C1067.81 350.314 1114.87 364.794 1152.27 395.101Z" fill="url(#paint5_linear)" fill-opacity="0.15"/>
<path d="M486.249 272.462C526.006 314.871 561.41 386.618 539.065 436.58C516.72 486.542 437.205 514.428 395.416 492.352C353.918 470.275 350.725 398.237 334.184 351.761C317.933 305.285 288.332 284.371 290.074 264.038C291.815 243.704 324.607 223.952 363.204 220.466C401.801 217.271 446.491 230.052 486.249 272.462Z" fill="url(#paint6_linear)" fill-opacity="0.15"/>
<path d="M104.14 839H100.793V793.012H104.14V839ZM118.728 812.317C120.223 810.454 121.945 808.959 123.895 807.832C125.867 806.706 128.055 806.142 130.46 806.142C132.237 806.142 133.797 806.424 135.14 806.987C136.505 807.551 137.632 808.363 138.52 809.425C139.409 810.487 140.08 811.765 140.535 813.26C140.99 814.755 141.218 816.445 141.218 818.33V839H138.098V818.33C138.098 815.297 137.405 812.924 136.018 811.212C134.631 809.479 132.519 808.612 129.68 808.612C127.579 808.612 125.607 809.154 123.765 810.237C121.945 811.299 120.32 812.783 118.89 814.69V839H115.77V806.662H117.493C118.035 806.662 118.349 806.933 118.435 807.475L118.728 812.317ZM154.628 831.947C155.256 832.879 155.906 833.67 156.578 834.32C157.271 834.948 157.997 835.468 158.755 835.88C159.514 836.27 160.315 836.552 161.16 836.725C162.027 836.898 162.937 836.985 163.89 836.985C165.797 836.985 167.465 836.638 168.895 835.945C170.325 835.252 171.517 834.277 172.47 833.02C173.445 831.742 174.171 830.225 174.648 828.47C175.146 826.693 175.395 824.743 175.395 822.62C175.395 817.81 174.507 814.278 172.73 812.025C170.954 809.75 168.408 808.612 165.093 808.612C162.948 808.612 161.009 809.165 159.275 810.27C157.542 811.375 155.993 812.913 154.628 814.885V831.947ZM154.498 812.48C155.928 810.53 157.596 808.981 159.503 807.832C161.431 806.684 163.587 806.11 165.97 806.11C169.935 806.11 173.023 807.486 175.233 810.237C177.464 812.989 178.58 817.117 178.58 822.62C178.58 824.982 178.266 827.192 177.638 829.25C177.031 831.287 176.121 833.063 174.908 834.58C173.716 836.075 172.243 837.256 170.488 838.122C168.754 838.989 166.75 839.423 164.475 839.423C162.287 839.423 160.391 839.022 158.788 838.22C157.184 837.418 155.798 836.237 154.628 834.677V850.44H151.508V806.662H153.23C153.772 806.662 154.086 806.933 154.173 807.475L154.498 812.48ZM190.817 806.662V839H187.729V806.662H190.817ZM192.149 795.515C192.149 795.905 192.063 796.273 191.889 796.62C191.738 796.945 191.532 797.237 191.272 797.497C191.012 797.757 190.709 797.963 190.362 798.115C190.015 798.267 189.647 798.342 189.257 798.342C188.867 798.342 188.499 798.267 188.152 798.115C187.805 797.963 187.502 797.757 187.242 797.497C186.982 797.237 186.776 796.945 186.624 796.62C186.473 796.273 186.397 795.905 186.397 795.515C186.397 795.125 186.473 794.757 186.624 794.41C186.776 794.042 186.982 793.727 187.242 793.467C187.502 793.207 187.805 793.002 188.152 792.85C188.499 792.698 188.867 792.622 189.257 792.622C189.647 792.622 190.015 792.698 190.362 792.85C190.709 793.002 191.012 793.207 191.272 793.467C191.532 793.727 191.738 794.042 191.889 794.41C192.063 794.757 192.149 795.125 192.149 795.515ZM204.802 814.462C205.3 813.141 205.864 811.971 206.492 810.952C207.142 809.912 207.879 809.035 208.702 808.32C209.547 807.605 210.479 807.063 211.497 806.695C212.537 806.305 213.685 806.11 214.942 806.11C215.614 806.11 216.275 806.175 216.925 806.305C217.575 806.413 218.149 806.619 218.647 806.922L218.387 809.067C218.279 809.414 218.073 809.587 217.77 809.587C217.51 809.587 217.109 809.512 216.567 809.36C216.047 809.208 215.354 809.132 214.487 809.132C213.23 809.132 212.115 809.327 211.14 809.717C210.186 810.086 209.32 810.649 208.54 811.407C207.781 812.166 207.11 813.108 206.525 814.235C205.961 815.34 205.441 816.618 204.965 818.07V839H201.845V806.662H203.502C203.87 806.662 204.13 806.738 204.282 806.89C204.434 807.042 204.531 807.302 204.575 807.67L204.802 814.462ZM228.268 806.662V839H225.181V806.662H228.268ZM229.601 795.515C229.601 795.905 229.514 796.273 229.341 796.62C229.189 796.945 228.983 797.237 228.723 797.497C228.463 797.757 228.16 797.963 227.813 798.115C227.466 798.267 227.098 798.342 226.708 798.342C226.318 798.342 225.95 798.267 225.603 798.115C225.256 797.963 224.953 797.757 224.693 797.497C224.433 797.237 224.227 796.945 224.076 796.62C223.924 796.273 223.848 795.905 223.848 795.515C223.848 795.125 223.924 794.757 224.076 794.41C224.227 794.042 224.433 793.727 224.693 793.467C224.953 793.207 225.256 793.002 225.603 792.85C225.95 792.698 226.318 792.622 226.708 792.622C227.098 792.622 227.466 792.698 227.813 792.85C228.16 793.002 228.463 793.207 228.723 793.467C228.983 793.727 229.189 794.042 229.341 794.41C229.514 794.757 229.601 795.125 229.601 795.515ZM261.981 819.565C261.981 817.832 261.732 816.282 261.233 814.917C260.757 813.531 260.074 812.361 259.186 811.407C258.297 810.454 257.236 809.728 256.001 809.23C254.787 808.71 253.444 808.45 251.971 808.45C250.302 808.45 248.807 808.71 247.486 809.23C246.164 809.75 245.016 810.497 244.041 811.472C243.087 812.447 242.318 813.617 241.733 814.982C241.148 816.347 240.758 817.875 240.563 819.565H261.981ZM240.401 821.547V822.165C240.401 824.592 240.682 826.726 241.246 828.567C241.809 830.409 242.611 831.958 243.651 833.215C244.691 834.45 245.947 835.382 247.421 836.01C248.894 836.638 250.541 836.952 252.361 836.952C253.986 836.952 255.394 836.779 256.586 836.432C257.777 836.064 258.774 835.663 259.576 835.23C260.399 834.775 261.049 834.374 261.526 834.027C262.002 833.659 262.349 833.475 262.566 833.475C262.847 833.475 263.064 833.583 263.216 833.8L264.061 834.84C263.541 835.49 262.847 836.097 261.981 836.66C261.136 837.223 260.182 837.711 259.121 838.122C258.081 838.512 256.954 838.827 255.741 839.065C254.549 839.303 253.347 839.423 252.133 839.423C249.923 839.423 247.908 839.043 246.088 838.285C244.268 837.505 242.708 836.378 241.408 834.905C240.108 833.432 239.101 831.633 238.386 829.51C237.692 827.365 237.346 824.917 237.346 822.165C237.346 819.847 237.671 817.712 238.321 815.762C238.992 813.791 239.946 812.101 241.181 810.692C242.437 809.262 243.965 808.147 245.763 807.345C247.583 806.543 249.642 806.142 251.938 806.142C253.758 806.142 255.448 806.457 257.008 807.085C258.568 807.713 259.922 808.634 261.071 809.847C262.219 811.039 263.118 812.512 263.768 814.267C264.44 816.022 264.776 818.037 264.776 820.312C264.776 820.789 264.711 821.114 264.581 821.287C264.451 821.461 264.234 821.547 263.931 821.547H240.401ZM276.15 814.462C276.648 813.141 277.211 811.971 277.84 810.952C278.49 809.912 279.226 809.035 280.05 808.32C280.895 807.605 281.826 807.063 282.845 806.695C283.885 806.305 285.033 806.11 286.29 806.11C286.961 806.11 287.622 806.175 288.272 806.305C288.922 806.413 289.496 806.619 289.995 806.922L289.735 809.067C289.626 809.414 289.421 809.587 289.117 809.587C288.857 809.587 288.456 809.512 287.915 809.36C287.395 809.208 286.701 809.132 285.835 809.132C284.578 809.132 283.462 809.327 282.487 809.717C281.534 810.086 280.667 810.649 279.887 811.407C279.129 812.166 278.457 813.108 277.872 814.235C277.309 815.34 276.789 816.618 276.312 818.07V839H273.192V806.662H274.85C275.218 806.662 275.478 806.738 275.63 806.89C275.781 807.042 275.879 807.302 275.922 807.67L276.15 814.462ZM317.015 819.565C317.015 817.832 316.766 816.282 316.268 814.917C315.791 813.531 315.108 812.361 314.22 811.407C313.332 810.454 312.27 809.728 311.035 809.23C309.822 808.71 308.478 808.45 307.005 808.45C305.337 808.45 303.842 808.71 302.52 809.23C301.198 809.75 300.05 810.497 299.075 811.472C298.122 812.447 297.353 813.617 296.768 814.982C296.183 816.347 295.793 817.875 295.598 819.565H317.015ZM295.435 821.547V822.165C295.435 824.592 295.717 826.726 296.28 828.567C296.843 830.409 297.645 831.958 298.685 833.215C299.725 834.45 300.982 835.382 302.455 836.01C303.928 836.638 305.575 836.952 307.395 836.952C309.02 836.952 310.428 836.779 311.62 836.432C312.812 836.064 313.808 835.663 314.61 835.23C315.433 834.775 316.083 834.374 316.56 834.027C317.037 833.659 317.383 833.475 317.6 833.475C317.882 833.475 318.098 833.583 318.25 833.8L319.095 834.84C318.575 835.49 317.882 836.097 317.015 836.66C316.17 837.223 315.217 837.711 314.155 838.122C313.115 838.512 311.988 838.827 310.775 839.065C309.583 839.303 308.381 839.423 307.168 839.423C304.958 839.423 302.943 839.043 301.123 838.285C299.303 837.505 297.743 836.378 296.443 834.905C295.143 833.432 294.135 831.633 293.42 829.51C292.727 827.365 292.38 824.917 292.38 822.165C292.38 819.847 292.705 817.712 293.355 815.762C294.027 813.791 294.98 812.101 296.215 810.692C297.472 809.262 298.999 808.147 300.798 807.345C302.618 806.543 304.676 806.142 306.973 806.142C308.793 806.142 310.483 806.457 312.043 807.085C313.603 807.713 314.957 808.634 316.105 809.847C317.253 811.039 318.153 812.512 318.803 814.267C319.474 816.022 319.81 818.037 319.81 820.312C319.81 820.789 319.745 821.114 319.615 821.287C319.485 821.461 319.268 821.547 318.965 821.547H295.435ZM331.184 812.317C332.679 810.454 334.401 808.959 336.351 807.832C338.323 806.706 340.511 806.142 342.916 806.142C344.693 806.142 346.253 806.424 347.596 806.987C348.961 807.551 350.088 808.363 350.976 809.425C351.865 810.487 352.536 811.765 352.991 813.26C353.446 814.755 353.674 816.445 353.674 818.33V839H350.554V818.33C350.554 815.297 349.861 812.924 348.474 811.212C347.087 809.479 344.975 808.612 342.136 808.612C340.035 808.612 338.063 809.154 336.221 810.237C334.401 811.299 332.776 812.783 331.346 814.69V839H328.226V806.662H329.949C330.491 806.662 330.805 806.933 330.891 807.475L331.184 812.317ZM363.314 846.735C363.205 846.648 363.13 846.562 363.086 846.475C363.065 846.388 363.054 846.291 363.054 846.183C363.054 846.053 363.14 845.879 363.314 845.663C363.509 845.446 363.769 845.121 364.094 844.688C364.44 844.276 364.787 843.778 365.134 843.193C365.502 842.629 365.827 841.99 366.109 841.275C366.412 840.56 366.607 839.791 366.694 838.967C366.369 839.076 366.033 839.13 365.686 839.13C364.885 839.13 364.224 838.859 363.704 838.317C363.205 837.776 362.956 837.082 362.956 836.237C362.956 835.479 363.216 834.829 363.736 834.287C364.256 833.746 364.939 833.475 365.784 833.475C366.715 833.475 367.43 833.8 367.929 834.45C368.449 835.078 368.709 835.912 368.709 836.952C368.709 837.841 368.59 838.74 368.351 839.65C368.135 840.582 367.81 841.492 367.376 842.38C366.943 843.268 366.423 844.124 365.816 844.948C365.21 845.771 364.538 846.529 363.801 847.223L363.314 846.735ZM434.017 818.135V834.482C431.72 836.107 429.272 837.353 426.672 838.22C424.072 839.087 421.147 839.52 417.897 839.52C414.257 839.52 410.985 838.968 408.082 837.862C405.178 836.736 402.697 835.154 400.639 833.117C398.602 831.059 397.032 828.578 395.927 825.675C394.843 822.772 394.302 819.543 394.302 815.99C394.302 812.437 394.832 809.219 395.894 806.338C396.977 803.434 398.516 800.964 400.509 798.927C402.524 796.869 404.951 795.287 407.789 794.182C410.627 793.056 413.823 792.492 417.377 792.492C419.132 792.492 420.746 792.612 422.219 792.85C423.714 793.088 425.101 793.446 426.379 793.922C427.657 794.377 428.849 794.952 429.954 795.645C431.059 796.317 432.121 797.097 433.139 797.985L432.229 799.415C431.926 799.935 431.471 800.054 430.864 799.772C430.539 799.642 430.073 799.339 429.467 798.862C428.86 798.386 428.026 797.887 426.964 797.367C425.902 796.847 424.581 796.382 422.999 795.97C421.439 795.558 419.532 795.352 417.279 795.352C414.289 795.352 411.581 795.829 409.154 796.782C406.749 797.736 404.691 799.101 402.979 800.877C401.289 802.654 399.978 804.821 399.047 807.377C398.137 809.934 397.682 812.805 397.682 815.99C397.682 819.218 398.137 822.122 399.047 824.7C399.978 827.278 401.311 829.467 403.044 831.265C404.799 833.063 406.922 834.439 409.414 835.392C411.906 836.346 414.712 836.822 417.832 836.822C419.197 836.822 420.453 836.736 421.602 836.562C422.772 836.389 423.877 836.151 424.917 835.847C425.978 835.522 426.997 835.132 427.972 834.677C428.968 834.201 429.976 833.67 430.994 833.085V820.702H422.187C421.948 820.702 421.742 820.627 421.569 820.475C421.417 820.323 421.342 820.15 421.342 819.955V818.135H434.017ZM468.082 806.662V839H466.36C465.818 839 465.504 838.718 465.417 838.155L465.125 833.345C463.63 835.208 461.896 836.703 459.925 837.83C457.975 838.957 455.797 839.52 453.392 839.52C451.594 839.52 450.023 839.238 448.68 838.675C447.336 838.112 446.22 837.299 445.332 836.237C444.444 835.176 443.772 833.897 443.317 832.402C442.862 830.907 442.635 829.217 442.635 827.332V806.662H445.755V827.332C445.755 830.366 446.448 832.749 447.835 834.482C449.221 836.194 451.334 837.05 454.172 837.05C456.274 837.05 458.235 836.519 460.055 835.457C461.896 834.374 463.532 832.879 464.962 830.972V806.662H468.082ZM487.569 839.52C485.381 839.52 483.669 838.913 482.434 837.7C481.221 836.487 480.614 834.612 480.614 832.077V809.977H475.967C475.729 809.977 475.534 809.912 475.382 809.782C475.23 809.652 475.154 809.468 475.154 809.23V808.027L480.679 807.637L481.459 796.067C481.503 795.872 481.589 795.699 481.719 795.547C481.849 795.396 482.034 795.32 482.272 795.32H483.734V807.67H493.939V809.977H483.734V831.915C483.734 832.803 483.843 833.572 484.059 834.223C484.298 834.851 484.612 835.371 485.002 835.782C485.414 836.194 485.89 836.497 486.432 836.692C486.974 836.887 487.559 836.985 488.187 836.985C488.967 836.985 489.639 836.877 490.202 836.66C490.765 836.422 491.253 836.172 491.664 835.912C492.076 835.631 492.412 835.382 492.672 835.165C492.932 834.927 493.138 834.807 493.289 834.807C493.463 834.807 493.636 834.916 493.809 835.132L494.654 836.497C493.831 837.407 492.78 838.144 491.502 838.707C490.245 839.249 488.934 839.52 487.569 839.52ZM523.568 819.565C523.568 817.832 523.319 816.282 522.82 814.917C522.344 813.531 521.661 812.361 520.773 811.407C519.884 810.454 518.823 809.728 517.588 809.23C516.374 808.71 515.031 808.45 513.558 808.45C511.889 808.45 510.394 808.71 509.073 809.23C507.751 809.75 506.603 810.497 505.628 811.472C504.674 812.447 503.905 813.617 503.32 814.982C502.735 816.347 502.345 817.875 502.15 819.565H523.568ZM501.988 821.547V822.165C501.988 824.592 502.269 826.726 502.833 828.567C503.396 830.409 504.198 831.958 505.238 833.215C506.278 834.45 507.534 835.382 509.008 836.01C510.481 836.638 512.128 836.952 513.948 836.952C515.573 836.952 516.981 836.779 518.173 836.432C519.364 836.064 520.361 835.663 521.163 835.23C521.986 834.775 522.636 834.374 523.113 834.027C523.589 833.659 523.936 833.475 524.153 833.475C524.434 833.475 524.651 833.583 524.803 833.8L525.648 834.84C525.128 835.49 524.434 836.097 523.568 836.66C522.723 837.223 521.769 837.711 520.708 838.122C519.668 838.512 518.541 838.827 517.328 839.065C516.136 839.303 514.934 839.423 513.72 839.423C511.51 839.423 509.495 839.043 507.675 838.285C505.855 837.505 504.295 836.378 502.995 834.905C501.695 833.432 500.688 831.633 499.973 829.51C499.279 827.365 498.933 824.917 498.933 822.165C498.933 819.847 499.258 817.712 499.908 815.762C500.579 813.791 501.533 812.101 502.768 810.692C504.024 809.262 505.552 808.147 507.35 807.345C509.17 806.543 511.229 806.142 513.525 806.142C515.345 806.142 517.035 806.457 518.595 807.085C520.155 807.713 521.509 808.634 522.658 809.847C523.806 811.039 524.705 812.512 525.355 814.267C526.027 816.022 526.363 818.037 526.363 820.312C526.363 820.789 526.298 821.114 526.168 821.287C526.038 821.461 525.821 821.547 525.518 821.547H501.988ZM552.557 810.66C552.383 810.963 552.134 811.115 551.809 811.115C551.571 811.115 551.268 810.985 550.899 810.725C550.531 810.443 550.033 810.14 549.404 809.815C548.798 809.468 548.039 809.165 547.129 808.905C546.219 808.623 545.114 808.482 543.814 808.482C542.644 808.482 541.572 808.656 540.597 809.002C539.643 809.327 538.82 809.772 538.127 810.335C537.455 810.898 536.935 811.559 536.567 812.317C536.198 813.054 536.014 813.834 536.014 814.657C536.014 815.676 536.274 816.521 536.794 817.192C537.314 817.864 537.986 818.438 538.809 818.915C539.654 819.392 540.618 819.803 541.702 820.15C542.785 820.497 543.879 820.843 544.984 821.19C546.111 821.537 547.216 821.927 548.299 822.36C549.383 822.772 550.336 823.292 551.159 823.92C552.004 824.548 552.687 825.317 553.207 826.227C553.727 827.137 553.987 828.242 553.987 829.542C553.987 830.951 553.738 832.262 553.239 833.475C552.741 834.688 552.004 835.739 551.029 836.627C550.076 837.516 548.895 838.22 547.487 838.74C546.078 839.26 544.464 839.52 542.644 839.52C540.369 839.52 538.408 839.163 536.762 838.447C535.115 837.711 533.642 836.757 532.342 835.587L533.057 834.482C533.165 834.309 533.284 834.179 533.414 834.092C533.566 834.006 533.761 833.962 533.999 833.962C534.281 833.962 534.617 834.136 535.007 834.482C535.418 834.829 535.96 835.208 536.632 835.62C537.303 836.01 538.127 836.378 539.102 836.725C540.098 837.072 541.323 837.245 542.774 837.245C544.139 837.245 545.342 837.061 546.382 836.692C547.422 836.302 548.288 835.782 548.982 835.132C549.675 834.482 550.195 833.724 550.542 832.857C550.91 831.969 551.094 831.037 551.094 830.062C551.094 828.979 550.834 828.08 550.314 827.365C549.794 826.65 549.112 826.043 548.267 825.545C547.422 825.047 546.458 824.624 545.374 824.277C544.313 823.931 543.218 823.584 542.092 823.237C540.965 822.891 539.86 822.512 538.777 822.1C537.715 821.688 536.762 821.168 535.917 820.54C535.072 819.912 534.389 819.153 533.869 818.265C533.349 817.355 533.089 816.228 533.089 814.885C533.089 813.737 533.338 812.632 533.837 811.57C534.335 810.508 535.039 809.577 535.949 808.775C536.881 807.973 538.008 807.334 539.329 806.857C540.651 806.381 542.135 806.142 543.782 806.142C545.753 806.142 547.498 806.424 549.014 806.987C550.553 807.551 551.95 808.417 553.207 809.587L552.557 810.66ZM601.261 806.662V807.962C601.261 808.417 601.109 808.829 600.806 809.197L580.558 836.562H600.448V839H576.821V837.765C576.821 837.397 576.983 836.996 577.308 836.562L597.621 809.1H577.893V806.662H601.261ZM633.946 806.662V839H632.224C631.682 839 631.368 838.718 631.281 838.155L630.989 833.345C629.494 835.208 627.761 836.703 625.789 837.83C623.839 838.957 621.661 839.52 619.256 839.52C617.458 839.52 615.887 839.238 614.544 838.675C613.201 838.112 612.085 837.299 611.196 836.237C610.308 835.176 609.636 833.897 609.181 832.402C608.726 830.907 608.499 829.217 608.499 827.332V806.662H611.619V827.332C611.619 830.366 612.312 832.749 613.699 834.482C615.086 836.194 617.198 837.05 620.036 837.05C622.138 837.05 624.099 836.519 625.919 835.457C627.761 834.374 629.396 832.879 630.826 830.972V806.662H633.946ZM671.08 839.52C668.892 839.52 667.18 838.913 665.945 837.7C664.732 836.487 664.125 834.612 664.125 832.077V809.977H659.478C659.239 809.977 659.044 809.912 658.893 809.782C658.741 809.652 658.665 809.468 658.665 809.23V808.027L664.19 807.637L664.97 796.067C665.013 795.872 665.1 795.699 665.23 795.547C665.36 795.396 665.544 795.32 665.783 795.32H667.245V807.67H677.45V809.977H667.245V831.915C667.245 832.803 667.353 833.572 667.57 834.223C667.808 834.851 668.123 835.371 668.513 835.782C668.924 836.194 669.401 836.497 669.943 836.692C670.484 836.887 671.069 836.985 671.698 836.985C672.478 836.985 673.149 836.877 673.713 836.66C674.276 836.422 674.763 836.172 675.175 835.912C675.587 835.631 675.923 835.382 676.183 835.165C676.443 834.927 676.648 834.807 676.8 834.807C676.973 834.807 677.147 834.916 677.32 835.132L678.165 836.497C677.342 837.407 676.291 838.144 675.013 838.707C673.756 839.249 672.445 839.52 671.08 839.52ZM709.61 806.662V839H707.888C707.346 839 707.032 838.718 706.945 838.155L706.653 833.345C705.158 835.208 703.425 836.703 701.453 837.83C699.503 838.957 697.325 839.52 694.92 839.52C693.122 839.52 691.551 839.238 690.208 838.675C688.865 838.112 687.749 837.299 686.86 836.237C685.972 835.176 685.3 833.897 684.845 832.402C684.39 830.907 684.163 829.217 684.163 827.332V806.662H687.283V827.332C687.283 830.366 687.976 832.749 689.363 834.482C690.75 836.194 692.862 837.05 695.7 837.05C697.802 837.05 699.763 836.519 701.583 835.457C703.425 834.374 705.06 832.879 706.49 830.972V806.662H709.61ZM723.215 812.317C724.71 810.454 726.433 808.959 728.383 807.832C730.354 806.706 732.543 806.142 734.948 806.142C736.724 806.142 738.284 806.424 739.628 806.987C740.993 807.551 742.119 808.363 743.008 809.425C743.896 810.487 744.568 811.765 745.023 813.26C745.478 814.755 745.705 816.445 745.705 818.33V839H742.585V818.33C742.585 815.297 741.892 812.924 740.505 811.212C739.119 809.479 737.006 808.612 734.168 808.612C732.066 808.612 730.094 809.154 728.253 810.237C726.433 811.299 724.808 812.783 723.378 814.69V839H720.258V806.662H721.98C722.522 806.662 722.836 806.933 722.923 807.475L723.215 812.317ZM755.248 836.497C755.248 836.086 755.323 835.696 755.475 835.327C755.627 834.959 755.833 834.645 756.093 834.385C756.374 834.103 756.688 833.887 757.035 833.735C757.403 833.562 757.804 833.475 758.238 833.475C758.649 833.475 759.039 833.562 759.408 833.735C759.776 833.887 760.09 834.103 760.35 834.385C760.632 834.645 760.848 834.959 761 835.327C761.173 835.696 761.26 836.086 761.26 836.497C761.26 836.931 761.173 837.332 761 837.7C760.848 838.047 760.632 838.361 760.35 838.642C760.09 838.902 759.776 839.108 759.408 839.26C759.039 839.412 758.649 839.488 758.238 839.488C757.393 839.488 756.678 839.206 756.093 838.642C755.529 838.057 755.248 837.342 755.248 836.497Z" fill="white"/>
<path d="M155.813 608.875L144.813 578.812C144.271 577.479 143.708 575.896 143.125 574.062C142.542 572.229 141.958 570.25 141.375 568.125C140.833 570.25 140.271 572.25 139.688 574.125C139.104 575.958 138.542 577.562 138 578.937L127.063 608.875H155.813ZM185.5 643H172.5C171.042 643 169.854 642.646 168.938 641.937C168.021 641.187 167.333 640.271 166.875 639.187L160.125 620.75H122.688L115.938 639.187C115.604 640.146 114.958 641.021 114 641.812C113.042 642.604 111.854 643 110.438 643H97.3125L132.875 552.625H150L185.5 643ZM242.896 592.437C242.437 593.021 241.979 593.479 241.521 593.812C241.104 594.146 240.479 594.312 239.646 594.312C238.854 594.312 238.083 594.083 237.333 593.625C236.583 593.125 235.687 592.583 234.646 592C233.604 591.375 232.354 590.833 230.896 590.375C229.479 589.875 227.708 589.625 225.583 589.625C222.875 589.625 220.5 590.125 218.458 591.125C216.416 592.083 214.708 593.479 213.333 595.312C212 597.146 211 599.375 210.333 602C209.666 604.583 209.333 607.521 209.333 610.812C209.333 614.229 209.687 617.271 210.396 619.937C211.146 622.604 212.208 624.854 213.583 626.687C214.958 628.479 216.625 629.854 218.583 630.812C220.541 631.729 222.75 632.187 225.208 632.187C227.666 632.187 229.646 631.896 231.146 631.312C232.687 630.687 233.979 630.021 235.021 629.312C236.062 628.562 236.958 627.896 237.708 627.312C238.5 626.687 239.375 626.375 240.333 626.375C241.583 626.375 242.521 626.854 243.146 627.812L247.583 633.437C245.875 635.437 244.021 637.125 242.021 638.5C240.021 639.833 237.937 640.917 235.771 641.75C233.646 642.542 231.437 643.104 229.146 643.438C226.896 643.771 224.646 643.938 222.396 643.938C218.437 643.938 214.708 643.208 211.208 641.75C207.708 640.25 204.646 638.083 202.021 635.25C199.396 632.417 197.312 628.958 195.771 624.875C194.271 620.75 193.521 616.062 193.521 610.812C193.521 606.104 194.187 601.75 195.521 597.75C196.896 593.708 198.896 590.229 201.521 587.312C204.146 584.354 207.396 582.042 211.271 580.375C215.146 578.708 219.604 577.875 224.646 577.875C229.437 577.875 233.625 578.646 237.208 580.188C240.833 581.729 244.083 583.937 246.958 586.812L242.896 592.437ZM328.198 643H312.761V590.437H283.011V625.187C283.011 627.187 283.49 628.75 284.448 629.875C285.448 631 286.802 631.562 288.511 631.562C289.469 631.562 290.261 631.458 290.886 631.25C291.552 631 292.115 630.75 292.573 630.5C293.073 630.25 293.511 630.021 293.886 629.812C294.261 629.562 294.636 629.437 295.011 629.437C295.469 629.437 295.844 629.562 296.136 629.812C296.427 630.021 296.74 630.354 297.073 630.812L301.698 638.312C299.448 640.187 296.865 641.604 293.948 642.562C291.032 643.521 288.011 644 284.886 644C279.302 644 275.011 642.437 272.011 639.312C269.052 636.146 267.573 631.792 267.573 626.25V590.437H261.011C260.177 590.437 259.469 590.167 258.886 589.625C258.302 589.083 258.011 588.271 258.011 587.187V581.062L268.323 579.312L271.573 561.875C271.782 561.042 272.177 560.396 272.761 559.937C273.344 559.479 274.094 559.25 275.011 559.25H283.011V579.437H328.198V643ZM330.886 559.937C330.886 561.271 330.615 562.542 330.073 563.75C329.532 564.917 328.802 565.937 327.886 566.812C327.011 567.687 325.948 568.396 324.698 568.937C323.49 569.437 322.198 569.687 320.823 569.687C319.49 569.687 318.24 569.437 317.073 568.937C315.907 568.396 314.886 567.687 314.011 566.812C313.136 565.937 312.427 564.917 311.886 563.75C311.386 562.542 311.136 561.271 311.136 559.937C311.136 558.562 311.386 557.292 311.886 556.125C312.427 554.917 313.136 553.875 314.011 553C314.886 552.083 315.907 551.375 317.073 550.875C318.24 550.333 319.49 550.062 320.823 550.062C322.198 550.062 323.49 550.333 324.698 550.875C325.948 551.375 327.011 552.083 327.886 553C328.802 553.875 329.532 554.917 330.073 556.125C330.615 557.292 330.886 558.562 330.886 559.937ZM408.018 578.875L382.58 643H368.58L343.143 578.875H355.893C357.059 578.875 358.018 579.146 358.768 579.687C359.559 580.229 360.08 580.917 360.33 581.75L372.705 616C373.372 618 373.955 619.958 374.455 621.875C374.955 623.792 375.393 625.708 375.768 627.625C376.184 625.708 376.643 623.792 377.143 621.875C377.643 619.958 378.247 618 378.955 616L391.58 581.75C391.872 580.917 392.393 580.229 393.143 579.687C393.893 579.146 394.788 578.875 395.83 578.875H408.018ZM461.854 603.562C461.854 601.562 461.563 599.687 460.979 597.937C460.438 596.146 459.604 594.583 458.479 593.25C457.354 591.917 455.917 590.875 454.167 590.125C452.459 589.333 450.459 588.937 448.167 588.937C443.709 588.937 440.188 590.208 437.604 592.75C435.063 595.292 433.438 598.896 432.729 603.562H461.854ZM432.417 612.875C432.667 616.167 433.25 619.021 434.167 621.437C435.084 623.812 436.292 625.792 437.792 627.375C439.292 628.917 441.063 630.083 443.104 630.875C445.188 631.625 447.479 632 449.979 632C452.479 632 454.625 631.708 456.417 631.125C458.25 630.542 459.834 629.896 461.167 629.187C462.542 628.479 463.729 627.833 464.729 627.25C465.771 626.667 466.771 626.375 467.729 626.375C469.021 626.375 469.979 626.854 470.604 627.812L475.042 633.437C473.334 635.437 471.417 637.125 469.292 638.5C467.167 639.833 464.938 640.917 462.604 641.75C460.313 642.542 457.959 643.104 455.542 643.438C453.167 643.771 450.854 643.938 448.604 643.938C444.146 643.938 440 643.208 436.167 641.75C432.334 640.25 429 638.062 426.167 635.188C423.334 632.271 421.104 628.687 419.479 624.437C417.854 620.146 417.042 615.187 417.042 609.562C417.042 605.187 417.75 601.083 419.167 597.25C420.584 593.375 422.604 590.021 425.229 587.187C427.896 584.312 431.125 582.042 434.917 580.375C438.75 578.708 443.063 577.875 447.854 577.875C451.896 577.875 455.625 578.521 459.042 579.812C462.459 581.104 465.396 583 467.854 585.5C470.313 587.958 472.229 591 473.604 594.625C475.021 598.208 475.729 602.312 475.729 606.937C475.729 609.271 475.479 610.854 474.979 611.687C474.479 612.479 473.521 612.875 472.104 612.875H432.417ZM155.813 727.875L144.813 697.812C144.271 696.479 143.708 694.896 143.125 693.062C142.542 691.229 141.958 689.25 141.375 687.125C140.833 689.25 140.271 691.25 139.688 693.125C139.104 694.958 138.542 696.562 138 697.937L127.063 727.875H155.813ZM185.5 762H172.5C171.042 762 169.854 761.646 168.938 760.937C168.021 760.187 167.333 759.271 166.875 758.187L160.125 739.75H122.688L115.938 758.187C115.604 759.146 114.958 760.021 114 760.812C113.042 761.604 111.854 762 110.438 762H97.3125L132.875 671.625H150L185.5 762ZM198.545 762V697.875H207.982C209.982 697.875 211.295 698.812 211.92 700.687L212.92 705.437C214.045 704.187 215.212 703.042 216.42 702C217.67 700.958 218.982 700.062 220.357 699.312C221.774 698.562 223.274 697.979 224.857 697.562C226.482 697.104 228.253 696.875 230.17 696.875C234.212 696.875 237.524 697.979 240.107 700.187C242.732 702.354 244.691 705.25 245.982 708.875C246.982 706.75 248.232 704.937 249.732 703.437C251.232 701.896 252.878 700.646 254.67 699.687C256.462 698.729 258.357 698.021 260.357 697.562C262.399 697.104 264.441 696.875 266.482 696.875C270.024 696.875 273.17 697.417 275.92 698.5C278.67 699.583 280.982 701.167 282.857 703.25C284.732 705.333 286.149 707.875 287.107 710.875C288.107 713.875 288.607 717.312 288.607 721.187V762H273.17V721.187C273.17 717.104 272.274 714.042 270.482 712C268.691 709.917 266.066 708.875 262.607 708.875C261.024 708.875 259.545 709.146 258.17 709.687C256.837 710.229 255.649 711.021 254.607 712.062C253.607 713.062 252.816 714.333 252.232 715.875C251.649 717.417 251.357 719.187 251.357 721.187V762H235.857V721.187C235.857 716.896 234.982 713.771 233.232 711.812C231.524 709.854 229.003 708.875 225.67 708.875C223.42 708.875 221.316 709.437 219.357 710.562C217.441 711.646 215.649 713.146 213.982 715.062V762H198.545ZM324.969 745.375C326.719 747.5 328.615 749 330.656 749.875C332.74 750.75 334.927 751.187 337.219 751.187C339.594 751.187 341.719 750.771 343.594 749.937C345.51 749.062 347.135 747.729 348.469 745.938C349.802 744.104 350.823 741.792 351.531 739C352.24 736.167 352.594 732.792 352.594 728.875C352.594 721.833 351.427 716.75 349.094 713.625C346.76 710.458 343.406 708.875 339.031 708.875C336.073 708.875 333.49 709.562 331.281 710.937C329.073 712.271 326.969 714.167 324.969 716.625V745.375ZM324.969 705.75C327.552 703.042 330.406 700.896 333.531 699.312C336.698 697.687 340.302 696.875 344.344 696.875C348.052 696.875 351.385 697.604 354.344 699.062C357.344 700.521 359.885 702.625 361.969 705.375C364.094 708.083 365.719 711.375 366.844 715.25C367.969 719.125 368.531 723.479 368.531 728.312C368.531 733.521 367.885 738.25 366.594 742.5C365.302 746.75 363.448 750.396 361.031 753.437C358.656 756.437 355.781 758.771 352.406 760.437C349.031 762.104 345.281 762.938 341.156 762.938C339.156 762.938 337.344 762.729 335.719 762.313C334.094 761.937 332.594 761.396 331.219 760.687C329.844 759.979 328.573 759.125 327.406 758.125C326.281 757.083 325.198 755.937 324.156 754.687L323.469 759C323.219 760.083 322.781 760.854 322.156 761.312C321.573 761.771 320.76 762 319.719 762H309.531V669.125H324.969V705.75ZM420.579 734.625C416.121 734.833 412.371 735.229 409.329 735.812C406.287 736.354 403.85 737.062 402.017 737.937C400.183 738.812 398.871 739.833 398.079 741C397.287 742.167 396.892 743.437 396.892 744.812C396.892 747.521 397.683 749.458 399.267 750.625C400.892 751.792 402.996 752.375 405.579 752.375C408.746 752.375 411.475 751.812 413.767 750.687C416.1 749.521 418.371 747.771 420.579 745.437V734.625ZM385.204 706.812C392.579 700.062 401.454 696.687 411.829 696.687C415.579 696.687 418.933 697.312 421.892 698.562C424.85 699.771 427.35 701.479 429.392 703.687C431.433 705.854 432.975 708.458 434.017 711.5C435.1 714.542 435.642 717.875 435.642 721.5V762H428.642C427.183 762 426.058 761.792 425.267 761.375C424.475 760.917 423.85 760.021 423.392 758.687L422.017 754.062C420.392 755.521 418.808 756.812 417.267 757.937C415.725 759.021 414.121 759.937 412.454 760.687C410.787 761.437 408.996 762 407.079 762.375C405.204 762.792 403.121 763 400.829 763C398.121 763 395.621 762.646 393.329 761.937C391.037 761.187 389.058 760.083 387.392 758.625C385.725 757.167 384.433 755.354 383.517 753.187C382.6 751.021 382.142 748.5 382.142 745.625C382.142 744 382.412 742.396 382.954 740.812C383.496 739.187 384.371 737.646 385.579 736.187C386.829 734.729 388.433 733.354 390.392 732.062C392.35 730.771 394.746 729.646 397.579 728.687C400.454 727.729 403.787 726.958 407.579 726.375C411.371 725.75 415.704 725.375 420.579 725.25V721.5C420.579 717.208 419.662 714.042 417.829 712C415.996 709.917 413.35 708.875 409.892 708.875C407.392 708.875 405.308 709.167 403.642 709.75C402.017 710.333 400.579 711 399.329 711.75C398.079 712.458 396.933 713.104 395.892 713.687C394.892 714.271 393.767 714.562 392.517 714.562C391.433 714.562 390.517 714.292 389.767 713.75C389.017 713.167 388.412 712.5 387.954 711.75L385.204 706.812ZM495.556 710.375C495.139 711.042 494.702 711.521 494.243 711.812C493.785 712.062 493.201 712.187 492.493 712.187C491.743 712.187 490.931 711.979 490.056 711.562C489.222 711.146 488.243 710.687 487.118 710.187C485.993 709.646 484.701 709.167 483.243 708.75C481.826 708.333 480.139 708.125 478.181 708.125C475.139 708.125 472.743 708.771 470.993 710.062C469.285 711.354 468.431 713.042 468.431 715.125C468.431 716.5 468.868 717.667 469.743 718.625C470.66 719.542 471.847 720.354 473.306 721.062C474.806 721.771 476.493 722.417 478.368 723C480.243 723.542 482.139 724.146 484.056 724.812C486.014 725.479 487.931 726.25 489.806 727.125C491.681 727.958 493.347 729.042 494.806 730.375C496.306 731.667 497.493 733.229 498.368 735.062C499.285 736.896 499.743 739.104 499.743 741.687C499.743 744.771 499.181 747.625 498.056 750.25C496.972 752.833 495.347 755.083 493.181 757C491.014 758.875 488.327 760.354 485.118 761.437C481.951 762.479 478.285 763 474.118 763C471.91 763 469.743 762.792 467.618 762.375C465.535 762 463.514 761.458 461.556 760.75C459.639 760.042 457.847 759.208 456.181 758.25C454.556 757.292 453.118 756.25 451.868 755.125L455.431 749.25C455.889 748.542 456.431 748 457.056 747.625C457.681 747.25 458.472 747.062 459.431 747.062C460.389 747.062 461.285 747.333 462.118 747.875C462.993 748.417 463.993 749 465.118 749.625C466.243 750.25 467.556 750.833 469.056 751.375C470.597 751.917 472.535 752.187 474.868 752.187C476.701 752.187 478.264 751.979 479.556 751.562C480.889 751.104 481.972 750.521 482.806 749.812C483.681 749.104 484.306 748.292 484.681 747.375C485.097 746.417 485.306 745.437 485.306 744.437C485.306 742.937 484.847 741.708 483.931 740.75C483.056 739.792 481.868 738.958 480.368 738.25C478.91 737.542 477.222 736.917 475.306 736.375C473.431 735.792 471.493 735.167 469.493 734.5C467.535 733.833 465.597 733.062 463.681 732.187C461.806 731.271 460.118 730.125 458.618 728.75C457.16 727.375 455.972 725.687 455.056 723.687C454.181 721.687 453.743 719.271 453.743 716.437C453.743 713.812 454.264 711.312 455.306 708.937C456.347 706.562 457.868 704.5 459.868 702.75C461.91 700.958 464.431 699.542 467.431 698.5C470.472 697.417 473.972 696.875 477.931 696.875C482.347 696.875 486.368 697.604 489.993 699.062C493.618 700.521 496.639 702.437 499.056 704.812L495.556 710.375ZM556.737 710.375C556.321 711.042 555.883 711.521 555.425 711.812C554.966 712.062 554.383 712.187 553.675 712.187C552.925 712.187 552.112 711.979 551.237 711.562C550.404 711.146 549.425 710.687 548.3 710.187C547.175 709.646 545.883 709.167 544.425 708.75C543.008 708.333 541.321 708.125 539.362 708.125C536.321 708.125 533.925 708.771 532.175 710.062C530.466 711.354 529.612 713.042 529.612 715.125C529.612 716.5 530.05 717.667 530.925 718.625C531.841 719.542 533.029 720.354 534.487 721.062C535.987 721.771 537.675 722.417 539.55 723C541.425 723.542 543.321 724.146 545.237 724.812C547.196 725.479 549.112 726.25 550.987 727.125C552.862 727.958 554.529 729.042 555.987 730.375C557.487 731.667 558.675 733.229 559.55 735.062C560.466 736.896 560.925 739.104 560.925 741.687C560.925 744.771 560.362 747.625 559.237 750.25C558.154 752.833 556.529 755.083 554.362 757C552.196 758.875 549.508 760.354 546.3 761.437C543.133 762.479 539.466 763 535.3 763C533.091 763 530.925 762.792 528.8 762.375C526.716 762 524.696 761.458 522.737 760.75C520.821 760.042 519.029 759.208 517.362 758.25C515.737 757.292 514.3 756.25 513.05 755.125L516.612 749.25C517.071 748.542 517.612 748 518.237 747.625C518.862 747.25 519.654 747.062 520.612 747.062C521.571 747.062 522.466 747.333 523.3 747.875C524.175 748.417 525.175 749 526.3 749.625C527.425 750.25 528.737 750.833 530.237 751.375C531.779 751.917 533.716 752.187 536.05 752.187C537.883 752.187 539.446 751.979 540.737 751.562C542.071 751.104 543.154 750.521 543.987 749.812C544.862 749.104 545.487 748.292 545.862 747.375C546.279 746.417 546.487 745.437 546.487 744.437C546.487 742.937 546.029 741.708 545.112 740.75C544.237 739.792 543.05 738.958 541.55 738.25C540.091 737.542 538.404 736.917 536.487 736.375C534.612 735.792 532.675 735.167 530.675 734.5C528.716 733.833 526.779 733.062 524.862 732.187C522.987 731.271 521.3 730.125 519.8 728.75C518.341 727.375 517.154 725.687 516.237 723.687C515.362 721.687 514.925 719.271 514.925 716.437C514.925 713.812 515.446 711.312 516.487 708.937C517.529 706.562 519.05 704.5 521.05 702.75C523.091 700.958 525.612 699.542 528.612 698.5C531.654 697.417 535.154 696.875 539.112 696.875C543.529 696.875 547.55 697.604 551.175 699.062C554.8 700.521 557.821 702.437 560.237 704.812L556.737 710.375ZM612.669 734.625C608.211 734.833 604.461 735.229 601.419 735.812C598.377 736.354 595.94 737.062 594.106 737.937C592.273 738.812 590.961 739.833 590.169 741C589.377 742.167 588.981 743.437 588.981 744.812C588.981 747.521 589.773 749.458 591.356 750.625C592.981 751.792 595.086 752.375 597.669 752.375C600.836 752.375 603.565 751.812 605.856 750.687C608.19 749.521 610.461 747.771 612.669 745.437V734.625ZM577.294 706.812C584.669 700.062 593.544 696.687 603.919 696.687C607.669 696.687 611.023 697.312 613.981 698.562C616.94 699.771 619.44 701.479 621.481 703.687C623.523 705.854 625.065 708.458 626.106 711.5C627.19 714.542 627.731 717.875 627.731 721.5V762H620.731C619.273 762 618.148 761.792 617.356 761.375C616.565 760.917 615.94 760.021 615.481 758.687L614.106 754.062C612.481 755.521 610.898 756.812 609.356 757.937C607.815 759.021 606.211 759.937 604.544 760.687C602.877 761.437 601.086 762 599.169 762.375C597.294 762.792 595.211 763 592.919 763C590.211 763 587.711 762.646 585.419 761.937C583.127 761.187 581.148 760.083 579.481 758.625C577.815 757.167 576.523 755.354 575.606 753.187C574.69 751.021 574.231 748.5 574.231 745.625C574.231 744 574.502 742.396 575.044 740.812C575.586 739.187 576.461 737.646 577.669 736.187C578.919 734.729 580.523 733.354 582.481 732.062C584.44 730.771 586.836 729.646 589.669 728.687C592.544 727.729 595.877 726.958 599.669 726.375C603.461 725.75 607.794 725.375 612.669 725.25V721.5C612.669 717.208 611.752 714.042 609.919 712C608.086 709.917 605.44 708.875 601.981 708.875C599.481 708.875 597.398 709.167 595.731 709.75C594.106 710.333 592.669 711 591.419 711.75C590.169 712.458 589.023 713.104 587.981 713.687C586.981 714.271 585.856 714.562 584.606 714.562C583.523 714.562 582.606 714.292 581.856 713.75C581.106 713.167 580.502 712.5 580.044 711.75L577.294 706.812ZM688.771 714.25C687.021 712.125 685.104 710.625 683.021 709.75C680.979 708.875 678.771 708.437 676.396 708.437C674.062 708.437 671.958 708.875 670.083 709.75C668.208 710.625 666.604 711.958 665.271 713.75C663.937 715.5 662.916 717.75 662.208 720.5C661.5 723.208 661.146 726.417 661.146 730.125C661.146 733.875 661.437 737.062 662.021 739.687C662.646 742.271 663.521 744.396 664.646 746.062C665.771 747.687 667.146 748.875 668.771 749.625C670.396 750.333 672.208 750.687 674.208 750.687C677.416 750.687 680.146 750.021 682.396 748.687C684.646 747.354 686.771 745.458 688.771 743V714.25ZM704.208 669.125V762H694.771C692.729 762 691.437 761.062 690.896 759.187L689.583 753C687 755.958 684.021 758.354 680.646 760.187C677.312 762.021 673.416 762.938 668.958 762.938C665.458 762.938 662.25 762.208 659.333 760.75C656.416 759.292 653.896 757.187 651.771 754.437C649.687 751.646 648.062 748.208 646.896 744.125C645.771 740.042 645.208 735.375 645.208 730.125C645.208 725.375 645.854 720.958 647.146 716.875C648.437 712.792 650.291 709.25 652.708 706.25C655.125 703.25 658.021 700.917 661.396 699.25C664.771 697.542 668.562 696.687 672.771 696.687C676.354 696.687 679.416 697.25 681.958 698.375C684.5 699.5 686.771 701.021 688.771 702.937V669.125H704.208ZM754.068 696.875C758.818 696.875 763.131 697.646 767.006 699.188C770.923 700.729 774.256 702.917 777.006 705.75C779.798 708.583 781.943 712.042 783.443 716.125C784.943 720.208 785.693 724.771 785.693 729.812C785.693 734.896 784.943 739.479 783.443 743.562C781.943 747.646 779.798 751.125 777.006 754C774.256 756.875 770.923 759.083 767.006 760.625C763.131 762.167 758.818 762.938 754.068 762.938C749.277 762.938 744.923 762.167 741.006 760.625C737.089 759.083 733.735 756.875 730.943 754C728.193 751.125 726.048 747.646 724.506 743.562C723.006 739.479 722.256 734.896 722.256 729.812C722.256 724.771 723.006 720.208 724.506 716.125C726.048 712.042 728.193 708.583 730.943 705.75C733.735 702.917 737.089 700.729 741.006 699.188C744.923 697.646 749.277 696.875 754.068 696.875ZM754.068 751.062C759.402 751.062 763.339 749.271 765.881 745.687C768.464 742.104 769.756 736.854 769.756 729.937C769.756 723.021 768.464 717.75 765.881 714.125C763.339 710.5 759.402 708.687 754.068 708.687C748.652 708.687 744.631 710.521 742.006 714.187C739.423 717.812 738.131 723.062 738.131 729.937C738.131 736.812 739.423 742.062 742.006 745.687C744.631 749.271 748.652 751.062 754.068 751.062ZM818.283 709C820.283 705.167 822.658 702.167 825.408 700C828.158 697.792 831.408 696.687 835.158 696.687C838.117 696.687 840.492 697.333 842.283 698.625L841.283 710.187C841.075 710.937 840.762 711.479 840.346 711.812C839.971 712.104 839.45 712.25 838.783 712.25C838.158 712.25 837.221 712.146 835.971 711.937C834.762 711.729 833.575 711.625 832.408 711.625C830.7 711.625 829.179 711.875 827.846 712.375C826.512 712.875 825.304 713.604 824.221 714.562C823.179 715.479 822.242 716.604 821.408 717.937C820.617 719.271 819.867 720.792 819.158 722.5V762H803.721V697.875H812.783C814.367 697.875 815.471 698.167 816.096 698.75C816.721 699.292 817.137 700.292 817.346 701.75L818.283 709ZM895.482 710.375C895.066 711.042 894.628 711.521 894.17 711.812C893.712 712.062 893.128 712.187 892.42 712.187C891.67 712.187 890.857 711.979 889.982 711.562C889.149 711.146 888.17 710.687 887.045 710.187C885.92 709.646 884.628 709.167 883.17 708.75C881.753 708.333 880.066 708.125 878.107 708.125C875.066 708.125 872.67 708.771 870.92 710.062C869.212 711.354 868.357 713.042 868.357 715.125C868.357 716.5 868.795 717.667 869.67 718.625C870.587 719.542 871.774 720.354 873.232 721.062C874.732 721.771 876.42 722.417 878.295 723C880.17 723.542 882.066 724.146 883.982 724.812C885.941 725.479 887.857 726.25 889.732 727.125C891.607 727.958 893.274 729.042 894.732 730.375C896.232 731.667 897.42 733.229 898.295 735.062C899.212 736.896 899.67 739.104 899.67 741.687C899.67 744.771 899.107 747.625 897.982 750.25C896.899 752.833 895.274 755.083 893.107 757C890.941 758.875 888.253 760.354 885.045 761.437C881.878 762.479 878.212 763 874.045 763C871.837 763 869.67 762.792 867.545 762.375C865.462 762 863.441 761.458 861.482 760.75C859.566 760.042 857.774 759.208 856.107 758.25C854.482 757.292 853.045 756.25 851.795 755.125L855.357 749.25C855.816 748.542 856.357 748 856.982 747.625C857.607 747.25 858.399 747.062 859.357 747.062C860.316 747.062 861.212 747.333 862.045 747.875C862.92 748.417 863.92 749 865.045 749.625C866.17 750.25 867.482 750.833 868.982 751.375C870.524 751.917 872.462 752.187 874.795 752.187C876.628 752.187 878.191 751.979 879.482 751.562C880.816 751.104 881.899 750.521 882.732 749.812C883.607 749.104 884.232 748.292 884.607 747.375C885.024 746.417 885.232 745.437 885.232 744.437C885.232 742.937 884.774 741.708 883.857 740.75C882.982 739.792 881.795 738.958 880.295 738.25C878.837 737.542 877.149 736.917 875.232 736.375C873.357 735.792 871.42 735.167 869.42 734.5C867.462 733.833 865.524 733.062 863.607 732.187C861.732 731.271 860.045 730.125 858.545 728.75C857.087 727.375 855.899 725.687 854.982 723.687C854.107 721.687 853.67 719.271 853.67 716.437C853.67 713.812 854.191 711.312 855.232 708.937C856.274 706.562 857.795 704.5 859.795 702.75C861.837 700.958 864.357 699.542 867.357 698.5C870.399 697.417 873.899 696.875 877.857 696.875C882.274 696.875 886.295 697.604 889.92 699.062C893.545 700.521 896.566 702.437 898.982 704.812L895.482 710.375Z" fill="white"/>
<path fill-rule="evenodd" clip-rule="evenodd" d="M666.157 109.923C669.05 110.66 671.908 111.475 674.727 112.364C700.88 120.611 723.757 135.279 742.033 154.307L741.933 153.872C786.398 143.675 818.315 166.11 841.562 192.167L834.694 198.293L841.562 192.167C865.894 219.441 879 256.786 879 297.054C879 340.116 863.362 378.242 829.839 420.046L829.839 420.046C797.858 459.926 750.562 501.581 696.808 548.924L696.252 549.413L696.251 549.414L696.105 549.543L696.103 549.545C677.091 566.281 655.586 585.222 633.111 605.448L626.941 611L620.783 605.435C598.464 585.269 577.014 566.376 558.048 549.673L557.986 549.62L557.949 549.588L557.913 549.556L557.881 549.528L557.877 549.525L557.319 549.033C503.513 501.648 456.169 459.954 424.165 420.046C390.638 378.242 375 340.116 375 297.054C375 256.786 388.106 219.441 412.438 192.167L412.439 192.166C424.384 178.779 440.575 166.323 458.413 158.26C476.212 150.215 496.374 146.237 515.805 151.009C520.725 146.185 525.929 141.69 531.38 137.549C533.208 136.16 535.064 134.811 536.946 133.503C567.844 112.027 605.875 101.511 645.073 106.035C647.592 106.326 650.116 106.679 652.644 107.095C654.903 107.467 657.165 107.889 659.429 108.363C661.692 108.837 663.935 109.357 666.157 109.923ZM501.159 167.423C489.784 166.892 477.751 169.719 465.995 175.033C450.668 181.961 436.532 192.812 426.174 204.42C405.236 227.89 393.408 260.691 393.408 297.054C393.408 334.849 406.851 369.037 438.526 408.531L438.526 408.531C469.419 447.053 515.569 487.738 570.036 535.706L570.04 535.708L570.044 535.712L570.099 535.76L570.138 535.793L570.176 535.827C587.401 550.996 606.754 568.041 626.965 586.225C647.284 568.005 666.671 550.931 683.939 535.73L684.083 535.603L684.084 535.602C738.501 487.675 784.606 447.028 815.478 408.532C847.149 369.037 860.592 334.849 860.592 297.054C860.592 260.69 848.763 227.889 827.825 204.419C808.449 182.701 785.608 166.965 755.493 170.212C758.034 173.627 760.447 177.141 762.725 180.746C763.969 182.714 765.173 184.709 766.335 186.73C786.104 221.078 794.053 262.822 785.751 305.057C783.854 314.706 781.186 323.99 777.826 332.855C776.943 335.185 776.012 337.487 775.034 339.759C762.971 367.793 743.848 391.262 720.389 408.305C718.533 409.653 716.651 410.961 714.742 412.227C684.273 432.451 647.231 442.19 609.104 437.693C606.715 437.411 604.322 437.073 601.925 436.679C599.666 436.307 597.404 435.884 595.14 435.411C592.876 434.937 590.634 434.416 588.412 433.85C586.185 433.283 583.979 432.67 581.796 432.012C548.1 421.861 519.723 401.1 499.443 374.054C498.048 372.192 496.69 370.301 495.372 368.381C475.692 339.722 464.765 304.741 465.604 268.133C465.66 265.686 465.769 263.232 465.931 260.771C466.413 253.459 467.367 246.095 468.818 238.717C474.13 211.691 485.495 187.527 501.159 167.423ZM699.231 138.063C719.805 149.875 737.089 166.505 749.962 186.261C743.749 188.798 737.658 191.064 731.682 193.061C724.13 173.852 713.288 155.297 699.231 138.063ZM667.859 124.688C691.258 146.374 708.151 171.149 718.507 197.081C693.047 204.085 669.695 205.956 647.888 202.857L663.491 123.483C664.958 123.863 666.414 124.265 667.859 124.688ZM723.157 210.187C695.556 217.887 669.728 220.059 645.221 216.429L639.832 243.839C670.679 251.34 698.988 266.225 728.166 288.696C728.363 287.629 728.549 286.561 728.724 285.492C732.767 260.742 730.902 235.09 723.157 210.187ZM631.669 213.797L626.311 241.052C598.109 236.262 567.85 237.37 533.201 243.771C538.928 220.772 549.678 199.124 564.819 180.025C585.878 196.765 607.986 208.081 631.669 213.797ZM623.646 254.608C596.09 250.008 565.949 251.361 530.259 258.453C526.226 284.876 528.649 312.914 538.634 340.919C563.176 332.587 586.433 329.585 608.487 331.727L623.646 254.608ZM519.409 242.028C519.034 243.606 518.68 245.189 518.348 246.777C506.174 249.445 493.459 252.711 480.112 256.551C480.608 251.569 481.345 246.563 482.331 241.545C489.557 204.783 508.93 173.85 535.199 152.232C541.456 159.024 547.79 165.302 554.216 171.062C537.431 192.152 525.548 216.248 519.409 242.028ZM515.911 261.542C504.325 264.219 492.163 267.45 479.335 271.228C479.14 302.007 487.963 331.343 503.619 355.985C511.115 352.108 518.498 348.69 525.771 345.727C515.627 317.424 512.589 288.866 515.911 261.542ZM561.413 408.999C541.827 398.958 524.943 384.662 511.669 367.462C518.202 364.136 524.611 361.194 530.899 358.626C538.366 375.705 548.482 392.606 561.413 408.999ZM588.991 419.733C568.559 398.516 553.679 376.264 543.779 353.828C565.947 346.38 586.565 343.73 605.806 345.364L591.078 420.29C590.38 420.109 589.684 419.923 588.991 419.733ZM705.765 401.51C685.556 414.613 662.303 422.698 637.898 424.53C658.511 413.575 676.139 400.565 690.78 386.036C695.86 390.793 700.854 395.952 705.765 401.51ZM607.203 423.513C637.094 411.433 661.396 395.434 680.289 376.887C661.325 361.545 641.182 351.61 619.695 347.328L619.497 347.289L604.591 423.119C605.462 423.259 606.333 423.39 607.203 423.513ZM716.976 393.479C711.514 387.231 705.918 381.41 700.182 376.035C716.958 356.885 728.981 335.511 736.25 312.99C744.473 320.036 752.871 327.734 761.525 336.103C751.242 359.122 735.779 378.647 716.976 393.479ZM689.75 366.881C706.672 347.568 718.264 325.969 724.707 303.438C694.999 279.761 667.152 264.762 637.168 257.392L622.16 333.743L622.228 333.756C646.636 338.62 669.067 349.942 689.75 366.881ZM742.316 287.883C741.74 291.406 741.055 294.912 740.261 298.397C749.003 305.681 757.863 313.634 766.929 322.263C769.101 315.808 770.883 309.122 772.238 302.228C779.494 265.316 773.253 228.893 757.077 198.345C750.036 201.266 743.109 203.87 736.29 206.153C744.659 233.022 746.731 260.849 742.316 287.883ZM563.146 160.629C557.473 155.534 551.845 149.982 546.248 143.964C566.966 129.905 591.027 121.212 616.356 119.259C595.835 130.504 577.952 144.523 563.146 160.629ZM573.765 169.59C592.901 148.919 617.607 131.862 646.944 120.2C647.955 120.341 648.966 120.492 649.978 120.654L634.333 200.244C613.246 195.086 593.212 184.953 573.765 169.59Z" fill="white"/>
</g>
<defs>
<linearGradient id="paint0_linear" x1="-78" y1="414" x2="343" y2="496" gradientUnits="userSpaceOnUse">
<stop stop-color="white"/>
<stop offset="1" stop-color="white" stop-opacity="0"/>
</linearGradient>
<linearGradient id="paint1_linear" x1="699.5" y1="94" x2="914.824" y2="215.447" gradientUnits="userSpaceOnUse">
<stop stop-color="white"/>
<stop offset="1" stop-color="white" stop-opacity="0"/>
</linearGradient>
<linearGradient id="paint2_linear" x1="298" y1="695" x2="102" y2="1001" gradientUnits="userSpaceOnUse">
<stop stop-color="white"/>
<stop offset="1" stop-color="white" stop-opacity="0"/>
</linearGradient>
<linearGradient id="paint3_linear" x1="157.5" y1="-14" x2="426.5" y2="199.5" gradientUnits="userSpaceOnUse">
<stop stop-color="white"/>
<stop offset="1" stop-color="white" stop-opacity="0"/>
</linearGradient>
<linearGradient id="paint4_linear" x1="930" y1="913" x2="681" y2="785" gradientUnits="userSpaceOnUse">
<stop stop-color="white"/>
<stop offset="1" stop-color="white" stop-opacity="0"/>
</linearGradient>
<linearGradient id="paint5_linear" x1="1101.5" y1="391" x2="713.5" y2="565.5" gradientUnits="userSpaceOnUse">
<stop stop-color="white"/>
<stop offset="1" stop-color="white" stop-opacity="0"/>
</linearGradient>
<linearGradient id="paint6_linear" x1="477.5" y1="383" x2="259.5" y2="228.5" gradientUnits="userSpaceOnUse">
<stop stop-color="white"/>
<stop offset="1" stop-color="white" stop-opacity="0"/>
</linearGradient>
<clipPath id="clip0">
<rect width="1000" height="1000" fill="white"/>
</clipPath>
</defs>
</svg>
